<?xml version="1.0" encoding="UTF-8" standalone="no"?>
<!-- Created with Inkscape (http://www.inkscape.org/) -->

<svg
   width="116.27061mm"
   height="113.875mm"
   viewBox="0 0 116.27062 113.875"
   version="1.1"
   id="svg1"
   xmlns="http://www.w3.org/2000/svg"
   xmlns:svg="http://www.w3.org/2000/svg">
  <defs
     id="defs1">
    <clipPath
       clipPathUnits="userSpaceOnUse"
       id="clipPath3">
      <path
         d="M 0,2438.87 H 5669.292 V 0 H 0 Z"
         transform="translate(-1448.0421,-1928.8748)"
         id="path3" />
    </clipPath>
    <clipPath
       clipPathUnits="userSpaceOnUse"
       id="clipPath5">
      <path
         d="M 0,2438.87 H 5669.292 V 0 H 0 Z"
         transform="translate(-2215.4884,-1960.3245)"
         id="path5" />
    </clipPath>
    <clipPath
       clipPathUnits="userSpaceOnUse"
       id="clipPath7">
      <path
         d="M 0,2438.87 H 5669.292 V 0 H 0 Z"
         transform="translate(-3077.1136,-1995.6783)"
         id="path7" />
    </clipPath>
    <clipPath
       clipPathUnits="userSpaceOnUse"
       id="clipPath9">
      <path
         d="M 0,2438.87 H 5669.292 V 0 H 0 Z"
         transform="translate(-2242.0638,-2245.202)"
         id="path9" />
    </clipPath>
    <clipPath
       clipPathUnits="userSpaceOnUse"
       id="clipPath11">
      <path
         d="M 0,2438.87 H 5669.292 V 0 H 0 Z"
         transform="translate(-3120.576,-2161.2945)"
         id="path11" />
    </clipPath>
    <clipPath
       clipPathUnits="userSpaceOnUse"
       id="clipPath13">
      <path
         d="M 0,2438.87 H 5669.292 V 0 H 0 Z"
         transform="translate(-1433.0205,-1944.2477)"
         id="path13" />
    </clipPath>
    <clipPath
       clipPathUnits="userSpaceOnUse"
       id="clipPath15">
      <path
         d="M 0,2438.87 H 5669.292 V 0 H 0 Z"
         transform="translate(-624.88312,-1925.9238)"
         id="path15" />
    </clipPath>
    <clipPath
       clipPathUnits="userSpaceOnUse"
       id="clipPath17">
      <path
         d="M 0,2438.87 H 5669.292 V 0 H 0 Z"
         transform="translate(-1184.0028,-1054.0997)"
         id="path17" />
    </clipPath>
    <clipPath
       clipPathUnits="userSpaceOnUse"
       id="clipPath19">
      <path
         d="M 0,2438.87 H 5669.292 V 0 H 0 Z"
         transform="translate(-2240.9974,-997.5639)"
         id="path19" />
    </clipPath>
    <clipPath
       clipPathUnits="userSpaceOnUse"
       id="clipPath21">
      <path
         d="M 0,2438.87 H 5669.292 V 0 H 0 Z"
         transform="translate(-3897.6742,-1013.2476)"
         id="path21" />
    </clipPath>
    <clipPath
       clipPathUnits="userSpaceOnUse"
       id="clipPath23">
      <path
         d="M 0,2438.87 H 5669.292 V 0 H 0 Z"
         transform="translate(-4857.1813,-1015.7111)"
         id="path23" />
    </clipPath>
    <clipPath
       clipPathUnits="userSpaceOnUse"
       id="clipPath25">
      <path
         d="M 0,2438.87 H 5669.292 V 0 H 0 Z"
         transform="translate(-846.56882,-1187.5089)"
         id="path25" />
    </clipPath>
  </defs>
  <circle
     style="fill:#ffffff;stroke-width:3.40999"
     id="path26"
     cx="56.607513"
     cy="57.531429"
     r="19.490202" />
  <path
     id="path2"
     d="M 0,0 C 103.864,0 188.093,-84.231 188.093,-188.094 188.093,-291.959 103.864,-376.19 0,-376.19 c -103.861,0 -188.089,84.231 -188.089,188.096 C -188.089,-84.231 -103.861,0 0,0 M -74.445,-75.677 H 13.044 L 10.735,-89.543 H 3.142 c -3.525,-0.222 -6.55,-0.497 -9.082,-0.825 -2.531,-0.331 -4.458,-0.828 -5.777,-1.487 -1.541,-0.659 -2.917,-1.541 -4.127,-2.642 -1.211,-1.1 -2.366,-2.419 -3.468,-3.96 -0.879,-1.541 -1.813,-3.742 -2.803,-6.604 -0.991,-2.861 -2.038,-6.386 -3.14,-10.567 l -18.158,-81.876 102.019,85.84 c 2.64,2.2 4.895,4.182 6.768,5.943 1.872,1.758 3.247,3.299 4.127,4.621 0.439,0.88 0.824,1.815 1.155,2.809 0.332,0.987 0.494,1.924 0.494,2.803 0,1.101 -0.162,1.98 -0.494,2.64 -0.331,0.665 -0.935,1.213 -1.817,1.652 -0.879,0.44 -2.31,0.771 -4.291,0.991 -1.98,0.222 -4.512,0.331 -7.592,0.331 l -6.932,0.331 3.629,13.866 h 85.178 l -3.3,-13.866 c -2.863,-0.222 -5.611,-0.44 -8.254,-0.662 -2.641,-0.22 -5.063,-0.66 -7.264,-1.32 -1.981,-0.441 -3.96,-1.046 -5.943,-1.817 -1.981,-0.768 -3.85,-1.707 -5.614,-2.806 -1.319,-0.879 -3.243,-2.257 -5.775,-4.127 -2.531,-1.872 -5.777,-4.347 -9.741,-7.429 l -76.263,-60.747 45.891,-91.125 c 2.2,-4.841 4.29,-8.914 6.271,-12.216 1.983,-3.3 3.853,-5.832 5.611,-7.593 1.104,-1.32 2.423,-2.474 3.965,-3.465 1.541,-0.99 3.191,-1.817 4.951,-2.477 1.762,-0.662 4.128,-1.156 7.099,-1.487 2.971,-0.328 6.548,-0.494 10.73,-0.494 l -2.972,-13.206 H 9.744 l 3.3,13.537 h 7.592 c 3.305,-0.222 6.054,-0.222 8.255,0 2.2,0.22 3.742,0.551 4.624,0.988 1.318,0.662 2.309,1.653 2.971,2.974 0.659,1.319 0.99,2.749 0.99,4.29 0,1.324 -0.386,2.974 -1.156,4.953 -0.77,1.98 -1.817,4.403 -3.137,7.263 l -38.298,80.227 -43.907,-34.996 -9.907,-41.266 c -0.659,-3.083 -1.156,-5.614 -1.484,-7.596 -0.331,-1.98 -0.497,-3.632 -0.497,-4.952 0,-1.101 0.222,-2.2 0.662,-3.302 0.438,-1.099 0.988,-2.201 1.65,-3.302 0.88,-0.879 1.816,-1.761 2.806,-2.64 0.99,-0.879 2.037,-1.539 3.137,-1.982 1.101,-0.222 2.751,-0.439 4.952,-0.659 2.201,-0.222 4.732,-0.331 7.592,-0.331 l 5.943,0.331 -2.64,-13.537 h -88.811 l 2.641,13.537 h 5.943 c 3.962,-0.222 7.318,-0.165 10.07,0.163 2.75,0.331 5.005,0.825 6.767,1.487 1.761,0.879 3.302,1.981 4.623,3.302 1.322,1.32 2.421,2.861 3.3,4.624 1.101,1.759 2.092,3.959 2.974,6.603 0.879,2.64 1.758,5.722 2.64,9.242 l 33.015,146.259 c 0.66,3.083 1.211,5.723 1.651,7.924 0.441,2.2 0.658,3.961 0.658,5.283 0,1.321 -0.165,2.586 -0.494,3.799 -0.33,1.207 -0.824,2.252 -1.484,3.134 -0.662,1.101 -1.432,1.98 -2.311,2.643 -0.88,0.659 -1.87,1.098 -2.972,1.318 -1.099,0.44 -2.697,0.771 -4.789,0.991 -2.09,0.222 -4.676,0.331 -7.759,0.331 l -6.273,0.331 z"
     style="fill:#e4183a;fill-opacity:1;fill-rule:evenodd;stroke:none;stroke-width:3.36989"
     transform="matrix(0.10468511,0,0,-0.10468511,56.659,37.76629)"
     clip-path="url(#clipPath3)" />
  <path
     id="path12"
     d="m 0,0 c -335.353,22.516 -375.061,-345.331 -235.976,-463.07 -58.816,157.714 -43.9,303.273 98.085,395.699 -184.406,-145.4 -138.802,-464.009 155.812,-502.641 -172.032,82.499 -229.297,204.929 -207.769,354.761 -0.578,-9.531 -0.44,-7.756 0.725,0.43 -18.022,-296.235 286.462,-408.793 460.997,-243.508 -164.698,-70.278 -299.406,-21.522 -390.538,99.278 180.57,-197.767 508.028,-99.225 490.158,162.884 C 302.99,-371.398 167.637,-434.729 35.018,-407.143 337.741,-417.069 428.05,-86.785 267.979,58.608 340.386,-93.239 299.374,-247.454 175.925,-333.403 391.429,-119.533 245.589,165.194 5.086,163.396 172.729,101.412 240.388,-26.739 220.749,-185.974 201.927,202.294 -161.976,170.477 -255.508,45.898 -75.354,113.269 52.49,85.001 150.303,-41.729 -57.855,165.569 -320.805,48.089 -348.882,-202.388 -272.032,-59.826 -177.867,42.048 0,0 m 35.907,227.647 c 54.224,-2.182 106.107,-13.971 153.04,-35.171 l -49.151,80.603 35.999,21.51 40.103,-67.73 42.633,85.642 32.983,-18.956 -45.344,-90.342 78.703,-0.721 -1.337,-39.094 -83.586,2.675 C 297.442,133.401 336.706,96.855 371.865,40.74 l 0.558,0.332 0.615,100.29 41.936,-0.635 -1.504,-78.251 80.882,50.139 0.163,-0.312 0.254,0.156 18.083,-33.467 -86.077,-52.998 66.559,-41.997 -18.786,-27.843 -76.883,43.979 c 18.784,-43.648 42.154,-132.312 45.716,-186.237 l 45.987,86.846 36.875,-19.954 -37.727,-69.088 95.392,7.098 0.551,-38.038 -100.821,-7.178 39.589,-68.02 -29.537,-8.618 -49.981,70.547 c -1.247,-61.537 -17.474,-104.881 -44.935,-159.968 l 84.925,44.133 18.991,-37.375 -70.313,-35.395 82.522,-48.379 -21.157,-31.619 -87.037,51.401 -6.09,-78.471 -33.396,3.646 2.872,83.847 c -31.933,-46.787 -72.894,-86.865 -120.357,-117.732 l 100.379,-1.59 -1.048,-41.902 -78.688,2.262 49.623,-81.781 -33.628,-17.763 -52.169,86.57 -42.642,-66.149 -27.648,19.07 45.741,78.197 c -50.442,-25.457 -106.608,-41.176 -166.016,-44.621 l -63.765,-116.27 -59.638,130.03 -110.125,-90.416 -29.602,147.035 -147.144,-28.917 28.915,147.144 -147.03,29.604 83.032,124.888 -124.492,83.603 124.492,83.609 -83.032,124.882 147.03,29.597 -28.915,147.181 147.144,-28.938 29.602,147.021 124.882,-83.023 83.618,124.486 z"
     style="fill:#cccccc;fill-opacity:1;fill-rule:evenodd;stroke:none;stroke-width:3.36989"
     transform="matrix(0.10468511,0,0,-0.10468511,55.08646,36.15698)"
     clip-path="url(#clipPath13)" />
</svg>
