<?xml version="1.0" encoding="UTF-8" standalone="no"?>
<!-- Created with Inkscape (http://www.inkscape.org/) -->

<svg
   width="30.961231mm"
   height="30.961889mm"
   viewBox="0 0 30.961231 30.961889"
   version="1.1"
   id="svg1"
   xmlns="http://www.w3.org/2000/svg"
   xmlns:svg="http://www.w3.org/2000/svg">
  <defs
     id="defs1">
    <clipPath
       clipPathUnits="userSpaceOnUse"
       id="clipPath3">
      <path
         d="M 0,2438.87 H 5669.292 V 0 H 0 Z"
         transform="translate(-1448.0421,-1928.8748)"
         id="path3" />
    </clipPath>
  </defs>
  <g
     id="layer1"
     transform="translate(-27.781255,-67.733333)">
    <circle
       style="fill:#ffffff;stroke-width:3.41"
       id="path1"
       cx="43.2747"
       cy="83.261856"
       r="14.920742" />
    <path
       id="path2"
       d="M 0,0 C 103.864,0 188.093,-84.231 188.093,-188.094 188.093,-291.959 103.864,-376.19 0,-376.19 c -103.861,0 -188.089,84.231 -188.089,188.096 C -188.089,-84.231 -103.861,0 0,0 M -74.445,-75.677 H 13.044 L 10.735,-89.543 H 3.142 c -3.525,-0.222 -6.55,-0.497 -9.082,-0.825 -2.531,-0.331 -4.458,-0.828 -5.777,-1.487 -1.541,-0.659 -2.917,-1.541 -4.127,-2.642 -1.211,-1.1 -2.366,-2.419 -3.468,-3.96 -0.879,-1.541 -1.813,-3.742 -2.803,-6.604 -0.991,-2.861 -2.038,-6.386 -3.14,-10.567 l -18.158,-81.876 102.019,85.84 c 2.64,2.2 4.895,4.182 6.768,5.943 1.872,1.758 3.247,3.299 4.127,4.621 0.439,0.88 0.824,1.815 1.155,2.809 0.332,0.987 0.494,1.924 0.494,2.803 0,1.101 -0.162,1.98 -0.494,2.64 -0.331,0.665 -0.935,1.213 -1.817,1.652 -0.879,0.44 -2.31,0.771 -4.291,0.991 -1.98,0.222 -4.512,0.331 -7.592,0.331 l -6.932,0.331 3.629,13.866 h 85.178 l -3.3,-13.866 c -2.863,-0.222 -5.611,-0.44 -8.254,-0.662 -2.641,-0.22 -5.063,-0.66 -7.264,-1.32 -1.981,-0.441 -3.96,-1.046 -5.943,-1.817 -1.981,-0.768 -3.85,-1.707 -5.614,-2.806 -1.319,-0.879 -3.243,-2.257 -5.775,-4.127 -2.531,-1.872 -5.777,-4.347 -9.741,-7.429 l -76.263,-60.747 45.891,-91.125 c 2.2,-4.841 4.29,-8.914 6.271,-12.216 1.983,-3.3 3.853,-5.832 5.611,-7.593 1.104,-1.32 2.423,-2.474 3.965,-3.465 1.541,-0.99 3.191,-1.817 4.951,-2.477 1.762,-0.662 4.128,-1.156 7.099,-1.487 2.971,-0.328 6.548,-0.494 10.73,-0.494 l -2.972,-13.206 H 9.744 l 3.3,13.537 h 7.592 c 3.305,-0.222 6.054,-0.222 8.255,0 2.2,0.22 3.742,0.551 4.624,0.988 1.318,0.662 2.309,1.653 2.971,2.974 0.659,1.319 0.99,2.749 0.99,4.29 0,1.324 -0.386,2.974 -1.156,4.953 -0.77,1.98 -1.817,4.403 -3.137,7.263 l -38.298,80.227 -43.907,-34.996 -9.907,-41.266 c -0.659,-3.083 -1.156,-5.614 -1.484,-7.596 -0.331,-1.98 -0.497,-3.632 -0.497,-4.952 0,-1.101 0.222,-2.2 0.662,-3.302 0.438,-1.099 0.988,-2.201 1.65,-3.302 0.88,-0.879 1.816,-1.761 2.806,-2.64 0.99,-0.879 2.037,-1.539 3.137,-1.982 1.101,-0.222 2.751,-0.439 4.952,-0.659 2.201,-0.222 4.732,-0.331 7.592,-0.331 l 5.943,0.331 -2.64,-13.537 h -88.811 l 2.641,13.537 h 5.943 c 3.962,-0.222 7.318,-0.165 10.07,0.163 2.75,0.331 5.005,0.825 6.767,1.487 1.761,0.879 3.302,1.981 4.623,3.302 1.322,1.32 2.421,2.861 3.3,4.624 1.101,1.759 2.092,3.959 2.974,6.603 0.879,2.64 1.758,5.722 2.64,9.242 l 33.015,146.259 c 0.66,3.083 1.211,5.723 1.651,7.924 0.441,2.2 0.658,3.961 0.658,5.283 0,1.321 -0.165,2.586 -0.494,3.799 -0.33,1.207 -0.824,2.252 -1.484,3.134 -0.662,1.101 -1.432,1.98 -2.311,2.643 -0.88,0.659 -1.87,1.098 -2.972,1.318 -1.099,0.44 -2.697,0.771 -4.789,0.991 -2.09,0.222 -4.676,0.331 -7.759,0.331 l -6.273,0.331 z"
       style="fill:#e4183a;fill-opacity:1;fill-rule:evenodd;stroke:none;stroke-width:4.28628"
       transform="matrix(0.08230386,0,0,-0.08230386,43.261706,67.733333)"
       clip-path="url(#clipPath3)" />
  </g>
</svg>
