<?xml version="1.0" encoding="UTF-8" standalone="no"?>
<!-- Created with Inkscape (http://www.inkscape.org/) -->

<svg
   width="338.19839mm"
   height="113.875mm"
   viewBox="0 0 338.19839 113.875"
   version="1.1"
   id="svg1"
   xmlns="http://www.w3.org/2000/svg"
   xmlns:svg="http://www.w3.org/2000/svg">
  <defs
     id="defs1">
    <clipPath
       clipPathUnits="userSpaceOnUse"
       id="clipPath3">
      <path
         d="M 0,2438.87 H 5669.292 V 0 H 0 Z"
         transform="translate(-1448.0421,-1928.8748)"
         id="path3" />
    </clipPath>
    <clipPath
       clipPathUnits="userSpaceOnUse"
       id="clipPath5">
      <path
         d="M 0,2438.87 H 5669.292 V 0 H 0 Z"
         transform="translate(-2215.4884,-1960.3245)"
         id="path5" />
    </clipPath>
    <clipPath
       clipPathUnits="userSpaceOnUse"
       id="clipPath7">
      <path
         d="M 0,2438.87 H 5669.292 V 0 H 0 Z"
         transform="translate(-3077.1136,-1995.6783)"
         id="path7" />
    </clipPath>
    <clipPath
       clipPathUnits="userSpaceOnUse"
       id="clipPath9">
      <path
         d="M 0,2438.87 H 5669.292 V 0 H 0 Z"
         transform="translate(-2242.0638,-2245.202)"
         id="path9" />
    </clipPath>
    <clipPath
       clipPathUnits="userSpaceOnUse"
       id="clipPath11">
      <path
         d="M 0,2438.87 H 5669.292 V 0 H 0 Z"
         transform="translate(-3120.576,-2161.2945)"
         id="path11" />
    </clipPath>
    <clipPath
       clipPathUnits="userSpaceOnUse"
       id="clipPath13">
      <path
         d="M 0,2438.87 H 5669.292 V 0 H 0 Z"
         transform="translate(-1433.0205,-1944.2477)"
         id="path13" />
    </clipPath>
    <clipPath
       clipPathUnits="userSpaceOnUse"
       id="clipPath15">
      <path
         d="M 0,2438.87 H 5669.292 V 0 H 0 Z"
         transform="translate(-624.88312,-1925.9238)"
         id="path15" />
    </clipPath>
    <clipPath
       clipPathUnits="userSpaceOnUse"
       id="clipPath17">
      <path
         d="M 0,2438.87 H 5669.292 V 0 H 0 Z"
         transform="translate(-1184.0028,-1054.0997)"
         id="path17" />
    </clipPath>
    <clipPath
       clipPathUnits="userSpaceOnUse"
       id="clipPath19">
      <path
         d="M 0,2438.87 H 5669.292 V 0 H 0 Z"
         transform="translate(-2240.9974,-997.5639)"
         id="path19" />
    </clipPath>
    <clipPath
       clipPathUnits="userSpaceOnUse"
       id="clipPath21">
      <path
         d="M 0,2438.87 H 5669.292 V 0 H 0 Z"
         transform="translate(-3897.6742,-1013.2476)"
         id="path21" />
    </clipPath>
    <clipPath
       clipPathUnits="userSpaceOnUse"
       id="clipPath23">
      <path
         d="M 0,2438.87 H 5669.292 V 0 H 0 Z"
         transform="translate(-4857.1813,-1015.7111)"
         id="path23" />
    </clipPath>
    <clipPath
       clipPathUnits="userSpaceOnUse"
       id="clipPath25">
      <path
         d="M 0,2438.87 H 5669.292 V 0 H 0 Z"
         transform="translate(-846.56882,-1187.5089)"
         id="path25" />
    </clipPath>
  </defs>
  <circle
     style="fill:#ffffff;stroke-width:3.40999"
     id="path26"
     cx="56.607517"
     cy="57.531429"
     r="19.490202" />
  <path
     id="path2"
     d="M 0,0 C 103.864,0 188.093,-84.231 188.093,-188.094 188.093,-291.959 103.864,-376.19 0,-376.19 c -103.861,0 -188.089,84.231 -188.089,188.096 C -188.089,-84.231 -103.861,0 0,0 M -74.445,-75.677 H 13.044 L 10.735,-89.543 H 3.142 c -3.525,-0.222 -6.55,-0.497 -9.082,-0.825 -2.531,-0.331 -4.458,-0.828 -5.777,-1.487 -1.541,-0.659 -2.917,-1.541 -4.127,-2.642 -1.211,-1.1 -2.366,-2.419 -3.468,-3.96 -0.879,-1.541 -1.813,-3.742 -2.803,-6.604 -0.991,-2.861 -2.038,-6.386 -3.14,-10.567 l -18.158,-81.876 102.019,85.84 c 2.64,2.2 4.895,4.182 6.768,5.943 1.872,1.758 3.247,3.299 4.127,4.621 0.439,0.88 0.824,1.815 1.155,2.809 0.332,0.987 0.494,1.924 0.494,2.803 0,1.101 -0.162,1.98 -0.494,2.64 -0.331,0.665 -0.935,1.213 -1.817,1.652 -0.879,0.44 -2.31,0.771 -4.291,0.991 -1.98,0.222 -4.512,0.331 -7.592,0.331 l -6.932,0.331 3.629,13.866 h 85.178 l -3.3,-13.866 c -2.863,-0.222 -5.611,-0.44 -8.254,-0.662 -2.641,-0.22 -5.063,-0.66 -7.264,-1.32 -1.981,-0.441 -3.96,-1.046 -5.943,-1.817 -1.981,-0.768 -3.85,-1.707 -5.614,-2.806 -1.319,-0.879 -3.243,-2.257 -5.775,-4.127 -2.531,-1.872 -5.777,-4.347 -9.741,-7.429 l -76.263,-60.747 45.891,-91.125 c 2.2,-4.841 4.29,-8.914 6.271,-12.216 1.983,-3.3 3.853,-5.832 5.611,-7.593 1.104,-1.32 2.423,-2.474 3.965,-3.465 1.541,-0.99 3.191,-1.817 4.951,-2.477 1.762,-0.662 4.128,-1.156 7.099,-1.487 2.971,-0.328 6.548,-0.494 10.73,-0.494 l -2.972,-13.206 H 9.744 l 3.3,13.537 h 7.592 c 3.305,-0.222 6.054,-0.222 8.255,0 2.2,0.22 3.742,0.551 4.624,0.988 1.318,0.662 2.309,1.653 2.971,2.974 0.659,1.319 0.99,2.749 0.99,4.29 0,1.324 -0.386,2.974 -1.156,4.953 -0.77,1.98 -1.817,4.403 -3.137,7.263 l -38.298,80.227 -43.907,-34.996 -9.907,-41.266 c -0.659,-3.083 -1.156,-5.614 -1.484,-7.596 -0.331,-1.98 -0.497,-3.632 -0.497,-4.952 0,-1.101 0.222,-2.2 0.662,-3.302 0.438,-1.099 0.988,-2.201 1.65,-3.302 0.88,-0.879 1.816,-1.761 2.806,-2.64 0.99,-0.879 2.037,-1.539 3.137,-1.982 1.101,-0.222 2.751,-0.439 4.952,-0.659 2.201,-0.222 4.732,-0.331 7.592,-0.331 l 5.943,0.331 -2.64,-13.537 h -88.811 l 2.641,13.537 h 5.943 c 3.962,-0.222 7.318,-0.165 10.07,0.163 2.75,0.331 5.005,0.825 6.767,1.487 1.761,0.879 3.302,1.981 4.623,3.302 1.322,1.32 2.421,2.861 3.3,4.624 1.101,1.759 2.092,3.959 2.974,6.603 0.879,2.64 1.758,5.722 2.64,9.242 l 33.015,146.259 c 0.66,3.083 1.211,5.723 1.651,7.924 0.441,2.2 0.658,3.961 0.658,5.283 0,1.321 -0.165,2.586 -0.494,3.799 -0.33,1.207 -0.824,2.252 -1.484,3.134 -0.662,1.101 -1.432,1.98 -2.311,2.643 -0.88,0.659 -1.87,1.098 -2.972,1.318 -1.099,0.44 -2.697,0.771 -4.789,0.991 -2.09,0.222 -4.676,0.331 -7.759,0.331 l -6.273,0.331 z"
     style="fill:#e4183a;fill-opacity:1;fill-rule:evenodd;stroke:none;stroke-width:3.36989"
     transform="matrix(0.10468511,0,0,-0.10468511,56.658996,37.766291)"
     clip-path="url(#clipPath3)" />
  <path
     id="path4"
     d="m 0,0 h 267.679 l -7.071,-42.426 h -23.232 c -10.776,-0.671 -20.036,-1.514 -27.779,-2.524 -7.743,-1.01 -13.636,-2.527 -17.677,-4.547 -4.714,-2.018 -8.924,-4.712 -12.626,-8.079 -3.705,-3.369 -7.239,-7.407 -10.606,-12.122 -2.694,-4.716 -5.557,-11.448 -8.587,-20.204 -3.031,-8.754 -6.23,-19.527 -9.595,-32.324 L 94.95,-372.737 407.073,-110.103 c 8.082,6.733 14.985,12.794 20.708,18.183 5.724,5.387 9.933,10.099 12.625,14.14 1.349,2.694 2.527,5.558 3.537,8.586 1.011,3.03 1.515,5.892 1.515,8.587 0,3.367 -0.504,6.061 -1.515,8.082 -1.01,2.018 -2.862,3.702 -5.555,5.048 -2.694,1.349 -7.07,2.359 -13.131,3.031 -6.062,0.674 -13.805,1.011 -23.235,1.011 L 380.811,-42.426 391.922,0 h 260.609 l -10.102,-42.426 c -8.753,-0.671 -17.17,-1.346 -25.252,-2.02 -8.082,-0.672 -15.489,-2.021 -22.221,-4.041 -6.062,-1.346 -12.123,-3.198 -18.184,-5.554 -6.061,-2.357 -11.784,-5.219 -17.171,-8.586 -4.04,-2.694 -9.934,-6.903 -17.677,-12.626 -7.746,-5.725 -17.677,-13.3 -29.799,-22.728 L 278.789,-283.846 419.195,-562.64 c 6.735,-14.814 13.133,-27.275 19.193,-37.375 6.06,-10.101 11.784,-17.844 17.172,-23.233 3.365,-4.042 7.407,-7.576 12.121,-10.606 4.713,-3.031 9.765,-5.555 15.151,-7.575 5.387,-2.021 12.626,-3.537 21.718,-4.548 9.091,-1.01 20.033,-1.513 32.829,-1.513 l -9.091,-40.406 H 257.577 l 10.102,41.416 h 23.233 c 10.099,-0.675 18.519,-0.675 25.251,0 6.736,0.674 11.449,1.684 14.143,3.03 4.041,2.021 7.071,5.051 9.09,9.09 2.019,4.04 3.03,8.419 3.03,13.132 0,4.041 -1.178,9.092 -3.535,15.153 -2.356,6.06 -5.555,13.468 -9.595,22.221 L 212.121,-338.393 77.777,-445.465 47.473,-571.731 c -2.02,-9.428 -3.534,-17.173 -4.544,-23.232 -1.011,-6.061 -1.517,-11.112 -1.517,-15.153 0,-3.366 0.675,-6.733 2.021,-10.102 1.349,-3.367 3.03,-6.733 5.051,-10.102 2.694,-2.693 5.558,-5.386 8.585,-8.079 3.031,-2.695 6.232,-4.715 9.598,-6.061 3.366,-0.674 8.418,-1.346 15.15,-2.02 6.736,-0.675 14.479,-1.01 23.235,-1.01 l 18.18,1.01 -8.081,-41.416 h -271.72 l 8.081,41.416 h 18.183 c 12.12,-0.675 22.39,-0.507 30.808,0.503 8.417,1.011 15.32,2.527 20.707,4.548 5.387,2.692 10.102,6.061 14.143,10.099 4.038,4.04 7.407,8.756 10.099,14.143 3.369,5.386 6.397,12.122 9.092,20.203 2.694,8.08 5.386,17.509 8.081,28.283 l 101.011,447.486 c 2.021,9.428 3.703,17.509 5.051,24.245 1.346,6.732 2.021,12.119 2.021,16.16 0,4.04 -0.506,7.913 -1.517,11.616 -1.01,3.704 -2.524,6.903 -4.544,9.597 -2.021,3.367 -4.377,6.062 -7.072,8.082 -2.692,2.018 -5.722,3.367 -9.091,4.038 -3.367,1.349 -8.25,2.359 -14.647,3.031 -6.397,0.674 -14.308,1.011 -23.736,1.011 l -19.193,1.009 z"
     style="fill:#e4183a;fill-opacity:1;fill-rule:evenodd;stroke:none;stroke-width:5.57965"
     transform="matrix(0.06322563,0,0,-0.06322563,147.88109,48.740609)"
     clip-path="url(#clipPath5)" />
  <path
     id="path6"
     d="m 0,0 -136.365,-604.055 c -2.696,-12.122 -4.548,-21.886 -5.558,-29.293 -1.01,-7.407 -1.514,-12.796 -1.514,-16.163 0,-5.386 0.671,-10.269 2.02,-14.646 1.346,-4.377 3.367,-8.25 6.061,-11.617 3.367,-2.693 6.734,-4.882 10.1,-6.567 3.366,-1.681 7.407,-2.524 12.122,-2.524 6.061,0 11.784,0.843 17.171,2.524 5.386,1.685 10.437,3.874 15.153,6.567 7.407,5.388 15.824,12.627 25.252,21.718 9.427,9.09 19.865,20.034 31.313,32.828 L 8.079,-647.49 c -22.896,-28.958 -46.464,-50.168 -70.709,-63.637 -24.242,-13.468 -48.484,-20.204 -72.726,-20.204 -12.796,0 -24.58,1.685 -35.354,5.051 -10.776,3.366 -20.203,8.417 -28.285,15.153 -7.407,7.407 -13.13,15.825 -17.171,25.252 -4.04,9.427 -6.061,19.529 -6.061,30.303 0,7.407 0.338,14.985 1.011,22.728 0.673,7.746 2.02,15.657 4.04,23.738 L -98.991,-83.84 h -90.912 l 9.091,42.424 c 8.082,0.675 15.993,1.686 23.738,3.032 7.744,1.348 14.983,2.694 21.718,4.04 6.734,1.346 13.13,2.695 19.191,4.04 6.062,1.346 11.448,2.695 16.163,4.041 9.425,3.367 19.527,7.072 30.304,11.112 10.773,4.042 21.547,8.754 32.323,14.14 z m 464.651,-593.953 27.272,-30.305 c -20.875,-19.527 -42.089,-36.194 -63.636,-50.001 -21.55,-13.804 -43.435,-25.42 -65.658,-34.85 -22.224,-8.754 -44.277,-15.151 -66.163,-19.191 -21.886,-4.041 -43.603,-6.061 -65.153,-6.061 -28.955,0 -54.881,4.04 -77.777,12.122 -22.897,8.081 -43.1,20.876 -60.607,38.384 -17.509,17.509 -30.809,38.217 -39.901,62.123 -9.089,23.906 -13.634,50.339 -13.634,79.294 0,25.591 3.703,51.013 11.11,76.265 7.407,25.255 18.52,49.329 33.334,72.225 14.142,23.57 31.481,44.949 52.02,64.143 20.54,19.191 43.604,35.861 69.192,50 26.263,14.143 53.367,24.749 81.314,31.82 27.947,7.071 56.736,10.606 86.365,10.606 23.57,0 44.613,-2.524 63.132,-7.575 18.518,-5.051 34.513,-13.301 47.981,-24.749 13.469,-10.776 23.4,-22.56 29.796,-35.353 6.398,-12.798 9.599,-26.601 9.599,-41.416 0,-8.755 -1.349,-17.677 -4.041,-26.769 -2.694,-9.091 -7.071,-18.351 -13.132,-27.779 -6.062,-9.428 -13.973,-18.687 -23.738,-27.778 -9.764,-9.09 -21.38,-17.678 -34.848,-25.759 -14.143,-8.754 -31.146,-16.499 -51.011,-23.231 -19.865,-6.736 -42.929,-12.795 -69.194,-18.184 -26.263,-5.387 -55.388,-9.932 -87.372,-13.637 -31.988,-3.702 -67.174,-6.565 -105.559,-8.585 -0.671,-6.735 -1.178,-12.458 -1.514,-17.173 -0.336,-4.713 -0.506,-8.754 -0.506,-12.12 0,-12.796 1.349,-24.916 4.04,-36.366 2.695,-11.448 6.736,-22.558 12.123,-33.334 5.386,-10.1 11.954,-19.191 19.697,-27.273 7.743,-8.081 16.667,-15.153 26.769,-21.214 10.099,-6.058 20.537,-10.437 31.313,-13.13 10.773,-2.694 21.548,-4.04 32.324,-4.04 14.14,0 29.293,1.852 45.454,5.555 16.163,3.704 33.668,9.259 52.526,16.666 18.856,7.41 37.375,16.667 55.556,27.779 18.181,11.112 35.689,23.738 52.527,37.881 z m -324.248,116.165 c 37.71,3.365 70.034,7.07 96.971,11.111 26.936,4.038 48.822,8.082 65.657,12.12 26.937,6.061 49.497,13.132 67.677,21.214 18.184,8.081 32.324,16.499 42.426,25.252 10.102,9.427 17.509,19.026 22.221,28.789 4.716,9.764 7.072,20.034 7.072,30.81 0,9.427 -1.684,18.013 -5.051,25.758 -3.367,7.744 -8.753,14.647 -16.161,20.708 -7.407,6.061 -16.331,10.773 -26.768,14.14 -10.438,3.369 -22.39,5.051 -35.858,5.051 -14.142,0 -28.789,-2.189 -43.942,-6.566 -15.15,-4.376 -30.471,-10.604 -45.96,-18.686 -15.486,-8.756 -29.964,-18.855 -43.433,-30.304 -13.468,-11.447 -25.926,-24.244 -37.375,-38.387 -10.775,-14.814 -20.032,-30.639 -27.779,-47.474 -7.743,-16.836 -14.308,-35.017 -19.697,-54.547 z M 838.39,0 751.522,-385.867 c 8.753,12.794 17.17,24.578 25.252,35.354 8.081,10.774 15.825,20.201 23.232,28.283 14.143,14.817 28.285,27.611 42.425,38.385 14.143,10.776 28.283,19.529 42.425,26.264 7.407,3.367 14.647,6.23 21.718,8.586 7.069,2.356 14.308,4.544 21.715,6.565 7.408,1.346 14.647,2.527 21.718,3.537 7.072,1.01 14.31,1.514 21.719,1.514 21.549,0 41.076,-3.705 58.585,-11.109 17.509,-7.41 33.334,-18.859 47.476,-34.347 14.14,-14.814 24.746,-31.817 31.818,-51.011 7.071,-19.193 10.606,-40.573 10.606,-64.143 0,-28.957 -3.535,-57.746 -10.606,-86.365 -7.072,-28.621 -18.013,-56.735 -32.827,-84.347 -14.818,-26.937 -31.314,-51.011 -49.497,-72.225 -18.182,-21.211 -38.383,-38.888 -60.607,-53.03 -22.221,-14.143 -45.118,-24.41 -68.688,-30.81 -23.567,-6.396 -47.474,-9.595 -71.716,-9.595 -13.468,0 -26.432,1.01 -38.89,3.03 -12.459,2.021 -24.411,4.715 -35.858,8.082 -10.777,4.712 -22.224,10.941 -34.344,18.687 -12.123,7.743 -24.245,17.002 -36.365,27.779 l -23.231,-46.466 H 596.973 L 740.41,-83.84 h -92.93 l 10.102,42.424 c 25.588,1.349 50.168,5.558 73.736,12.63 23.57,7.068 46.466,16.328 68.688,27.775 z M 696.975,-636.378 c 9.426,-9.428 18.686,-17.173 27.778,-23.235 9.092,-6.061 18.348,-11.447 27.779,-16.161 9.427,-4.714 19.022,-8.081 28.787,-10.101 9.765,-2.02 19.697,-3.03 29.799,-3.03 16.835,0 33.501,3.03 50,9.091 16.499,6.061 32.492,14.814 47.98,26.263 16.161,11.447 31.314,26.094 45.456,43.942 14.14,17.844 26.935,38.888 38.383,63.132 12.122,24.242 21.045,48.317 26.768,72.222 5.723,23.907 8.586,47.309 8.586,70.205 0,12.123 -1.01,23.57 -3.031,34.344 -2.02,10.775 -4.712,20.875 -8.079,30.305 -2.694,6.733 -6.399,12.794 -11.112,18.181 -4.715,5.387 -10.438,10.102 -17.171,14.143 -6.734,4.04 -13.468,7.072 -20.204,9.091 -6.733,2.021 -13.803,3.031 -21.211,3.031 -16.162,0 -32.156,-3.201 -47.98,-9.598 -15.825,-6.397 -31.482,-15.992 -46.97,-28.789 -20.876,-18.181 -40.405,-39.395 -58.588,-63.637 -18.181,-24.242 -34.341,-51.517 -48.485,-81.82 -9.426,-20.204 -18.183,-43.603 -26.262,-70.205 -8.081,-26.6 -15.488,-56.061 -22.223,-88.384 z m 919.202,42.425 27.273,-30.305 c -20.875,-19.527 -42.089,-36.194 -63.637,-50.001 -21.55,-13.804 -43.436,-25.42 -65.659,-34.85 -22.222,-8.754 -44.276,-15.151 -66.162,-19.191 -21.885,-4.041 -43.603,-6.061 -65.153,-6.061 -28.954,0 -54.881,4.04 -77.777,12.122 -22.896,8.081 -43.099,20.876 -60.606,38.384 -17.509,17.509 -30.81,38.217 -39.899,62.123 -9.091,23.906 -13.636,50.339 -13.636,79.294 0,25.591 3.702,51.013 11.109,76.265 7.407,25.255 18.52,49.329 33.334,72.225 14.144,23.57 31.481,44.949 52.021,64.143 20.54,19.191 43.604,35.861 69.192,50 26.262,14.143 53.367,24.749 81.314,31.82 27.947,7.071 56.735,10.606 86.365,10.606 23.57,0 44.613,-2.524 63.132,-7.575 18.519,-5.051 34.513,-13.301 47.981,-24.749 13.468,-10.776 23.399,-22.56 29.799,-35.353 6.397,-12.798 9.596,-26.601 9.596,-41.416 0,-8.755 -1.349,-17.677 -4.042,-26.769 -2.694,-9.091 -7.071,-18.351 -13.132,-27.779 -6.061,-9.428 -13.972,-18.687 -23.736,-27.778 -9.766,-9.09 -21.381,-17.678 -34.85,-25.759 -14.143,-8.754 -31.145,-16.499 -51.01,-23.231 -19.866,-6.736 -42.929,-12.795 -69.194,-18.184 -26.263,-5.387 -55.388,-9.932 -87.373,-13.637 -31.987,-3.702 -67.174,-6.565 -105.556,-8.585 -0.674,-6.735 -1.18,-12.458 -1.516,-17.173 -0.337,-4.713 -0.505,-8.754 -0.505,-12.12 0,-12.796 1.347,-24.916 4.039,-36.366 2.695,-11.448 6.735,-22.558 12.122,-33.334 5.387,-10.1 11.952,-19.191 19.698,-27.273 7.745,-8.081 16.666,-15.153 26.769,-21.214 10.099,-6.058 20.537,-10.437 31.312,-13.13 10.775,-2.694 21.549,-4.04 32.324,-4.04 14.141,0 29.293,1.852 45.453,5.555 16.164,3.704 33.673,9.259 52.528,16.666 18.855,7.41 37.372,16.667 55.555,27.779 18.181,11.112 35.691,23.738 52.527,37.881 z m -324.248,116.165 c 37.711,3.365 70.035,7.07 96.972,11.111 26.936,4.038 48.822,8.082 65.657,12.12 26.937,6.061 49.495,13.132 67.677,21.214 18.184,8.081 32.323,16.499 42.426,25.252 10.101,9.427 17.509,19.026 22.221,28.789 4.714,9.764 7.072,20.034 7.072,30.81 0,9.427 -1.683,18.013 -5.051,25.758 -3.368,7.744 -8.754,14.647 -16.161,20.708 -7.407,6.061 -16.331,10.773 -26.769,14.14 -10.437,3.369 -22.392,5.051 -35.858,5.051 -14.143,0 -28.789,-2.189 -43.942,-6.566 -15.15,-4.376 -30.471,-10.604 -45.96,-18.686 -15.486,-8.756 -29.964,-18.855 -43.432,-30.304 -13.469,-11.447 -25.927,-24.244 -37.375,-38.387 -10.776,-14.814 -20.034,-30.639 -27.778,-47.474 -7.744,-16.836 -14.308,-35.017 -19.699,-54.547 z m 649.502,241.419 -35.354,-154.548 c 9.43,16.834 19.36,32.658 29.799,47.475 10.437,14.815 21.382,27.947 32.83,39.395 11.447,12.122 22.895,22.558 34.343,31.314 11.448,8.755 22.897,16.163 34.344,22.224 8.754,4.038 17.339,7.236 25.757,9.595 8.416,2.357 17.005,3.535 25.757,3.535 9.428,0 17.678,-1.178 24.749,-3.535 7.071,-2.359 13.301,-5.893 18.688,-10.606 5.386,-4.715 9.427,-10.269 12.119,-16.669 2.695,-6.396 4.041,-13.3 4.041,-20.705 0,-6.061 -1.01,-11.786 -3.03,-17.173 -2.021,-5.389 -5.387,-10.776 -10.1,-16.163 -4.716,-4.712 -9.427,-8.249 -14.143,-10.606 -4.712,-2.356 -9.763,-3.534 -15.152,-3.534 -3.367,0 -7.575,0.503 -12.627,1.514 -5.048,1.01 -10.606,2.863 -16.667,5.555 -6.732,2.021 -12.626,3.705 -17.674,5.051 -5.051,1.348 -9.26,2.02 -12.628,2.02 -14.141,0 -28.284,-5.219 -42.423,-15.656 -14.143,-10.439 -28.958,-25.759 -44.446,-45.961 -20.876,-27.61 -39.731,-62.46 -56.566,-104.547 -16.835,-42.09 -31.987,-91.419 -45.455,-147.984 l -21.212,-86.871 h -80.809 l 90.908,405.06 h -90.908 l 10.101,40.405 c 15.488,1.346 29.461,3.366 41.919,6.061 12.458,2.695 24.073,5.386 34.847,8.081 10.103,3.367 20.54,7.239 31.316,11.616 10.774,4.377 21.548,9.26 32.322,14.647 z"
     style="fill:#ffffff;fill-opacity:1;fill-rule:evenodd;stroke:none;stroke-width:5.57965"
     transform="matrix(0.06322563,0,0,-0.06322563,202.35788,46.505341)"
     clip-path="url(#clipPath7)" />
  <g
     id="g2"
     transform="matrix(1.1553901,0,0,1.1553901,-24.535319,-0.6998377)"
     style="stroke-width:0.865508;fill:#ffffff">
    <path
       id="path8"
       d="m 0,0 h 58.322 l -2.169,-9.107 h -4.554 c -2.601,-0.143 -4.77,-0.323 -6.504,-0.54 -1.734,-0.218 -3.107,-0.47 -4.119,-0.759 -0.867,-0.435 -1.697,-0.975 -2.492,-1.627 -0.796,-0.65 -1.482,-1.483 -2.06,-2.493 -0.867,-1.302 -1.625,-2.892 -2.278,-4.769 -0.649,-1.88 -1.264,-4.12 -1.842,-6.723 l -8.889,-40.326 h 79.352 l 9.54,41.845 c 0.434,2.022 0.794,3.685 1.084,4.987 0.289,1.299 0.434,2.166 0.434,2.601 0,0.578 -0.074,1.121 -0.217,1.627 -0.146,0.504 -0.36,0.976 -0.652,1.408 -0.143,0.289 -0.287,0.541 -0.432,0.758 -0.146,0.217 -0.29,0.472 -0.435,0.758 -0.578,0.725 -1.228,1.339 -1.951,1.846 -0.722,0.506 -1.517,0.829 -2.384,0.975 h -1.301 c -0.578,0 -1.373,0.071 -2.386,0.215 h -3.468 -4.552 L 98.431,0 h 58.104 l -1.952,-9.107 h -5.201 c -2.315,-0.143 -4.266,-0.323 -5.854,-0.54 -1.59,-0.218 -2.892,-0.544 -3.904,-0.976 -1.01,-0.578 -1.951,-1.193 -2.818,-1.843 -0.867,-0.652 -1.589,-1.41 -2.167,-2.277 -0.289,-0.434 -0.581,-1.013 -0.869,-1.734 -0.289,-0.724 -0.579,-1.591 -0.867,-2.603 -0.432,-0.867 -0.796,-1.877 -1.085,-3.036 -0.288,-1.155 -0.578,-2.457 -0.867,-3.902 l -22.547,-97.998 c -0.435,-1.59 -0.721,-2.927 -0.867,-4.011 -0.146,-1.085 -0.217,-1.988 -0.217,-2.713 0,-1.444 0.288,-2.746 0.867,-3.901 0.578,-1.156 1.445,-2.095 2.603,-2.819 0.721,-0.578 1.879,-0.975 3.467,-1.193 1.592,-0.217 3.685,-0.323 6.289,-0.323 l 4.335,0.217 -1.951,-8.891 H 64.608 l 1.951,8.891 h 3.902 c 2.026,-0.145 3.797,-0.145 5.313,0 1.517,0.144 2.71,0.289 3.577,0.432 0.723,0.289 1.482,0.579 2.277,0.867 0.795,0.289 1.481,0.724 2.06,1.302 0.723,0.578 1.336,1.193 1.842,1.843 0.506,0.649 0.976,1.409 1.411,2.277 0.432,0.578 0.758,1.265 0.976,2.059 0.214,0.796 0.468,1.626 0.758,2.493 0.145,0.578 0.288,1.121 0.434,1.625 0.143,0.507 0.289,1.05 0.433,1.628 l 10.623,46.614 H 20.596 l -10.19,-44.663 c -0.435,-2.022 -0.759,-3.759 -0.976,-5.204 -0.217,-1.445 -0.323,-2.601 -0.323,-3.468 0,-0.867 0.106,-1.699 0.323,-2.494 0.217,-0.796 0.616,-1.554 1.193,-2.278 0.578,-0.577 1.228,-1.119 1.952,-1.625 0.723,-0.506 1.59,-0.904 2.6,-1.193 0.724,-0.143 1.988,-0.252 3.794,-0.326 1.808,-0.071 4.301,-0.106 7.482,-0.106 l -1.952,-8.674 h -58.321 l 2.169,8.891 h 3.249 c 2.169,-0.145 4.011,-0.145 5.531,0 1.516,0.144 2.781,0.289 3.794,0.432 0.867,0.289 1.696,0.616 2.492,0.976 0.795,0.361 1.482,0.832 2.059,1.411 0.724,0.577 1.339,1.155 1.843,1.734 0.506,0.577 0.904,1.155 1.193,1.733 0.578,1.156 1.122,2.567 1.625,4.228 0.506,1.663 0.978,3.577 1.411,5.746 l 22.115,96.698 c 0.432,1.88 0.795,3.577 1.084,5.096 0.289,1.516 0.432,2.709 0.432,3.576 0,0.724 -0.108,1.482 -0.323,2.277 -0.217,0.796 -0.544,1.483 -0.976,2.06 -0.578,0.724 -1.122,1.337 -1.628,1.843 -0.506,0.506 -1.119,0.832 -1.842,0.975 -0.578,0.289 -1.553,0.47 -2.927,0.544 -1.373,0.071 -3.073,0.106 -5.095,0.106 l -4.77,0.217 z m 241.527,-119.896 5.853,-6.506 c -4.48,-4.191 -9.035,-7.77 -13.659,-10.732 -4.626,-2.963 -9.324,-5.455 -14.093,-7.481 -4.769,-1.877 -9.504,-3.25 -14.201,-4.12 -4.698,-0.867 -9.359,-1.299 -13.985,-1.299 -6.214,0 -11.779,0.867 -16.694,2.601 -4.916,1.734 -9.25,4.48 -13.009,8.239 -3.757,3.757 -6.612,8.203 -8.563,13.333 -1.952,5.132 -2.927,10.806 -2.927,17.02 0,5.493 0.795,10.949 2.386,16.37 1.587,5.42 3.974,10.588 7.153,15.502 3.035,5.061 6.758,9.65 11.166,13.769 4.409,4.117 9.359,7.697 14.852,10.731 5.636,3.036 11.455,5.312 17.452,6.83 5.999,1.517 12.179,2.278 18.539,2.278 5.058,0 9.575,-0.544 13.549,-1.628 3.974,-1.085 7.408,-2.853 10.3,-5.311 2.889,-2.314 5.022,-4.843 6.395,-7.59 1.373,-2.746 2.06,-5.708 2.06,-8.889 0,-1.879 -0.29,-3.794 -0.867,-5.745 -0.578,-1.95 -1.519,-3.939 -2.818,-5.962 -1.302,-2.022 -3.002,-4.011 -5.096,-5.962 -2.097,-1.951 -4.589,-3.794 -7.479,-5.528 -3.035,-1.88 -6.686,-3.542 -10.949,-4.989 -4.265,-1.445 -9.215,-2.744 -14.851,-3.902 -5.639,-1.156 -11.89,-2.132 -18.754,-2.927 -6.866,-0.793 -14.419,-1.408 -22.659,-1.843 -0.143,-1.445 -0.252,-2.672 -0.324,-3.685 -0.071,-1.013 -0.108,-1.88 -0.108,-2.6 0,-2.747 0.289,-5.35 0.866,-7.808 0.578,-2.458 1.445,-4.841 2.601,-7.153 1.159,-2.169 2.566,-4.12 4.229,-5.857 1.663,-1.733 3.576,-3.25 5.745,-4.551 2.169,-1.302 4.409,-2.24 6.723,-2.818 2.312,-0.578 4.624,-0.867 6.936,-0.867 3.035,0 6.288,0.397 9.758,1.19 3.467,0.796 7.227,1.989 11.273,3.58 4.048,1.59 8.022,3.576 11.925,5.961 3.902,2.384 7.661,5.096 11.275,8.131 z m -69.598,24.931 c 8.094,0.724 15.033,1.519 20.815,2.386 5.782,0.867 10.479,1.734 14.093,2.603 5.782,1.299 10.623,2.819 14.525,4.552 3.902,1.734 6.938,3.541 9.107,5.422 2.168,2.022 3.756,4.082 4.769,6.177 1.013,2.097 1.519,4.3 1.519,6.614 0,2.023 -0.363,3.866 -1.084,5.528 -0.724,1.662 -1.88,3.144 -3.47,4.446 -1.589,1.299 -3.505,2.312 -5.745,3.035 -2.241,0.721 -4.807,1.085 -7.697,1.085 -3.035,0 -6.18,-0.473 -9.433,-1.411 -3.249,-0.939 -6.539,-2.277 -9.864,-4.011 -3.325,-1.879 -6.432,-4.048 -9.321,-6.506 -2.893,-2.455 -5.565,-5.201 -8.022,-8.236 -2.312,-3.182 -4.3,-6.578 -5.963,-10.192 -1.662,-3.613 -3.072,-7.516 -4.229,-11.707 z M 309.387,7.588 c 1.59,-0.144 2.998,-0.47 4.228,-0.976 1.228,-0.504 2.349,-1.265 3.36,-2.275 1.012,-1.013 1.77,-2.169 2.276,-3.47 0.507,-1.299 0.758,-2.747 0.758,-4.335 0,-1.879 -0.323,-3.613 -0.975,-5.204 -0.65,-1.59 -1.625,-3.036 -2.926,-4.337 -1.3,-1.299 -2.673,-2.275 -4.118,-2.927 -1.448,-0.649 -3.038,-0.975 -4.771,-0.975 -1.446,0 -2.856,0.254 -4.227,0.758 -1.373,0.506 -2.638,1.264 -3.796,2.277 -1.011,1.156 -1.805,2.386 -2.384,3.685 -0.578,1.302 -0.867,2.675 -0.867,4.12 0,1.879 0.324,3.579 0.976,5.095 0.65,1.519 1.697,2.927 3.144,4.229 1.3,1.445 2.744,2.492 4.334,3.143 1.592,0.651 3.254,0.977 4.988,0.977 z m 1.084,-50.735 -20.596,-81.086 c -0.435,-1.88 -0.724,-3.471 -0.867,-4.77 -0.146,-1.301 -0.218,-2.385 -0.218,-3.252 0,-1.157 0.146,-2.169 0.433,-3.036 0.291,-0.867 0.723,-1.663 1.301,-2.386 0.578,-0.578 1.265,-1.047 2.06,-1.408 0.795,-0.363 1.7,-0.543 2.709,-0.543 0.578,0 1.159,0.037 1.737,0.108 0.578,0.072 1.155,0.181 1.734,0.326 0.432,0.29 0.938,0.541 1.516,0.759 0.578,0.217 1.159,0.543 1.736,0.975 1.589,1.012 3.431,2.495 5.528,4.447 2.097,1.951 4.446,4.299 7.047,7.046 l 6.72,-5.639 c -2.168,-2.89 -4.48,-5.456 -6.937,-7.696 -2.458,-2.24 -5.131,-4.157 -8.023,-5.745 -2.746,-1.445 -5.456,-2.529 -8.131,-3.253 -2.672,-0.724 -5.238,-1.084 -7.696,-1.084 -2.747,0 -5.239,0.397 -7.479,1.193 -2.24,0.795 -4.3,1.914 -6.179,3.361 -1.734,1.734 -3.074,3.576 -4.012,5.528 -0.938,1.951 -1.407,4.011 -1.407,6.179 0,1.591 0.18,3.397 0.54,5.419 0.361,2.026 0.833,4.193 1.411,6.506 l 15.175,60.925 h -19.295 l 1.734,8.672 c 2.747,0.145 5.348,0.398 7.805,0.758 2.458,0.363 4.841,0.833 7.155,1.41 2.169,0.578 4.624,1.374 7.371,2.383 2.746,1.014 5.709,2.243 8.889,3.689 z m 124.016,-2.383 -2.386,-9.756 -87.158,-81.524 c 1.156,0 2.06,0.037 2.71,0.109 0.652,0.074 1.193,0.108 1.628,0.108 1.155,0 3.684,-0.252 7.587,-0.758 3.903,-0.506 9.178,-1.336 15.827,-2.492 3.325,-0.58 6.288,-1.012 8.889,-1.302 2.601,-0.289 4.77,-0.434 6.506,-0.434 1.733,0 3.433,0.18 5.093,0.543 1.662,0.361 3.289,0.904 4.88,1.625 1.589,0.724 2.962,1.519 4.117,2.386 1.157,0.867 2.026,1.805 2.604,2.819 0.721,1.155 1.336,2.492 1.843,4.01 0.506,1.517 0.829,3.359 0.975,5.528 0.289,2.169 0.686,4.085 1.193,5.745 0.506,1.665 1.265,3 2.275,4.011 1.012,1.158 2.059,1.989 3.144,2.495 1.084,0.506 2.205,0.758 3.362,0.758 1.299,0 2.528,-0.216 3.684,-0.65 1.156,-0.434 2.241,-1.156 3.253,-2.168 0.867,-1.013 1.554,-2.06 2.06,-3.145 0.504,-1.084 0.758,-2.349 0.758,-3.793 0,-2.312 -0.397,-4.661 -1.193,-7.047 -0.794,-2.385 -1.988,-4.732 -3.576,-7.046 -1.445,-2.313 -3.253,-4.409 -5.421,-6.288 -2.169,-1.878 -4.698,-3.468 -7.588,-4.77 -2.746,-1.01 -5.745,-1.843 -8.998,-2.492 -3.252,-0.653 -6.758,-0.976 -10.514,-0.976 -1.447,0 -3.001,0.035 -4.663,0.109 -1.663,0.071 -3.288,0.18 -4.878,0.323 -1.01,0.146 -2.71,0.364 -5.095,0.653 -2.384,0.288 -5.457,0.72 -9.213,1.299 -4.048,0.434 -7.41,0.795 -10.082,1.084 -2.675,0.289 -4.589,0.506 -5.745,0.652 -1.88,0.289 -3.759,0.469 -5.639,0.541 -1.879,0.071 -3.685,0.109 -5.42,0.109 -4.048,0 -7.984,-0.255 -11.815,-0.758 -3.831,-0.508 -7.625,-1.194 -11.383,-2.061 l 1.95,9.324 88.025,81.736 c -1.299,-0.288 -2.42,-0.468 -3.359,-0.541 -0.941,-0.071 -1.771,-0.108 -2.495,-0.108 -1.156,0 -3.396,0.217 -6.72,0.649 -3.325,0.435 -7.734,1.159 -13.227,2.169 -2.601,0.435 -4.984,0.76 -7.152,0.976 -2.169,0.217 -4.049,0.326 -5.639,0.326 -2.166,0 -4.117,-0.255 -5.853,-0.758 -1.734,-0.507 -3.251,-1.339 -4.553,-2.495 -1.445,-1.156 -2.637,-2.601 -3.579,-4.335 -0.938,-1.736 -1.768,-3.831 -2.491,-6.288 -0.579,-1.88 -1.119,-3.47 -1.626,-4.77 -0.507,-1.302 -0.975,-2.314 -1.41,-3.035 -0.867,-1.013 -1.88,-1.736 -3.036,-2.168 -1.155,-0.435 -2.529,-0.65 -4.12,-0.65 -1.444,0 -2.709,0.215 -3.793,0.65 -1.084,0.432 -2.06,1.084 -2.927,1.951 -0.867,1.012 -1.517,2.169 -1.951,3.47 -0.435,1.299 -0.65,2.744 -0.65,4.334 0,3.036 0.758,5.963 2.275,8.781 1.519,2.821 3.722,5.458 6.614,7.914 3.036,2.602 6.504,4.516 10.406,5.747 3.902,1.228 8.167,1.843 12.792,1.843 1.736,0 3.47,-0.038 5.203,-0.109 1.734,-0.072 3.468,-0.18 5.205,-0.326 1.009,-0.144 2.709,-0.398 5.095,-0.759 2.383,-0.36 5.528,-0.903 9.43,-1.628 3.759,-0.72 6.829,-1.299 9.216,-1.733 2.383,-0.433 4.082,-0.65 5.095,-0.65 1.588,-0.145 3.141,-0.289 4.661,-0.434 1.516,-0.143 2.998,-0.215 4.443,-0.215 3.47,0 7.084,0.289 10.843,0.866 3.756,0.579 7.658,1.446 11.707,2.601 z m 99.514,0 h 17.347 l -17.347,-76.752 c -0.432,-1.88 -0.758,-3.685 -0.976,-5.422 -0.216,-1.733 -0.326,-3.395 -0.326,-4.986 0,-1.01 0.184,-1.914 0.544,-2.71 0.361,-0.795 0.83,-1.554 1.408,-2.277 0.58,-0.578 1.23,-1.01 1.954,-1.299 0.721,-0.289 1.587,-0.435 2.601,-0.435 1.155,0 2.276,0.181 3.359,0.541 1.083,0.363 2.276,0.978 3.578,1.845 2.169,1.445 4.263,3.107 6.288,4.987 2.024,1.877 3.975,3.974 5.854,6.286 l 6.938,-5.636 c -2.746,-3.471 -5.456,-6.36 -8.131,-8.673 -2.675,-2.314 -5.241,-4.191 -7.696,-5.638 -2.314,-1.299 -4.735,-2.24 -7.263,-2.818 -2.53,-0.578 -5.096,-0.867 -7.697,-0.867 -2.746,0 -5.276,0.36 -7.588,1.084 -2.314,0.724 -4.337,1.808 -6.071,3.253 -1.735,1.588 -3.035,3.359 -3.904,5.31 -0.867,1.951 -1.3,4.085 -1.3,6.397 0,1.591 0.181,3.505 0.542,5.745 0.362,2.241 0.832,4.952 1.409,8.132 -1.59,-2.601 -3.143,-4.951 -4.66,-7.048 -1.519,-2.094 -3.072,-3.937 -4.664,-5.527 -2.889,-3.182 -5.89,-5.89 -8.997,-8.131 -3.107,-2.24 -6.323,-4.157 -9.647,-5.745 -3.18,-1.302 -6.323,-2.315 -9.431,-3.035 -3.107,-0.724 -6.107,-1.085 -8.998,-1.085 -2.311,0 -4.517,0.218 -6.614,0.65 -2.095,0.435 -4.01,1.012 -5.744,1.734 -1.734,0.578 -3.288,1.519 -4.661,2.82 -1.373,1.3 -2.566,2.673 -3.577,4.117 -1.012,1.592 -1.737,3.217 -2.169,4.881 -0.434,1.66 -0.651,3.287 -0.651,4.878 0,1.588 0.183,3.576 0.543,5.963 0.361,2.383 0.83,5.167 1.408,8.345 l 12.359,55.721 h -19.512 l 1.951,9.107 c 2.747,0.145 5.31,0.434 7.696,0.867 2.384,0.434 4.661,0.941 6.83,1.518 2.023,0.578 4.408,1.374 7.155,2.383 2.746,1.014 5.782,2.243 9.104,3.689 l 7.807,0.214 -17.128,-77.401 c -0.435,-1.88 -0.724,-3.433 -0.867,-4.661 -0.146,-1.23 -0.218,-2.205 -0.218,-2.927 0,-1.59 0.218,-3.072 0.65,-4.445 0.435,-1.374 1.158,-2.566 2.169,-3.577 1.012,-1.013 2.131,-1.77 3.362,-2.277 1.226,-0.506 2.565,-0.759 4.01,-0.759 3.178,0 6.432,0.687 9.756,2.06 3.324,1.374 6.721,3.434 10.191,6.18 4.481,3.468 8.491,7.443 12.031,11.924 3.542,4.481 6.686,9.394 9.433,14.743 2.746,5.494 5.095,11.058 7.046,16.695 1.951,5.635 3.577,11.346 4.878,17.128 z m 84.557,2.383 -7.588,-33.17 c 0.867,1.299 1.735,2.6 2.601,3.902 0.867,1.302 1.734,2.529 2.604,3.685 0.721,1.157 1.516,2.24 2.383,3.253 0.867,1.012 1.734,1.952 2.601,2.819 3.036,3.324 6.145,6.179 9.324,8.564 3.178,2.385 6.36,4.372 9.538,5.961 3.181,1.591 6.326,2.783 9.433,3.578 3.107,0.795 6.18,1.194 9.213,1.194 2.314,0 4.483,-0.218 6.505,-0.653 2.023,-0.432 3.974,-1.084 5.854,-1.951 1.734,-0.867 3.325,-1.951 4.769,-3.25 1.446,-1.302 2.675,-2.747 3.688,-4.337 0.578,-0.867 1.047,-1.734 1.408,-2.604 0.361,-0.867 0.686,-1.662 0.976,-2.383 0.145,-0.867 0.288,-1.734 0.435,-2.601 0.143,-0.87 0.214,-1.736 0.214,-2.603 0,-1.445 -0.181,-3.324 -0.54,-5.637 -0.361,-2.314 -0.905,-4.986 -1.626,-8.021 l -9.974,-44.881 c -0.577,-2.312 -0.975,-4.263 -1.192,-5.854 -0.218,-1.59 -0.326,-2.818 -0.326,-3.685 0,-1.012 0.18,-1.953 0.543,-2.82 0.36,-0.867 0.83,-1.662 1.408,-2.384 0.724,-0.578 1.444,-1.05 2.168,-1.41 0.724,-0.361 1.591,-0.541 2.601,-0.541 2.457,0 5.276,1.155 8.457,3.468 3.179,2.314 6.721,5.853 10.622,10.625 l 6.722,-6.071 c -3.179,-3.759 -6.106,-6.867 -8.781,-9.324 -2.675,-2.458 -5.167,-4.337 -7.479,-5.636 -2.314,-1.158 -4.697,-2.025 -7.155,-2.603 -2.457,-0.578 -4.915,-0.867 -7.372,-0.867 -1.878,0 -3.649,0.18 -5.311,0.543 -1.662,0.361 -3.144,0.758 -4.446,1.191 -1.444,0.723 -2.709,1.628 -3.793,2.712 -1.085,1.084 -2.06,2.349 -2.927,3.793 -0.724,1.445 -1.302,2.89 -1.734,4.335 -0.435,1.447 -0.652,2.963 -0.652,4.555 0,1.301 0.108,2.855 0.326,4.66 0.217,1.808 0.614,3.796 1.193,5.963 l 10.405,47.049 c 0.435,1.879 0.761,3.613 0.979,5.203 0.214,1.591 0.323,2.89 0.323,3.903 0,1.591 -0.252,2.998 -0.758,4.228 -0.506,1.228 -1.265,2.275 -2.278,3.145 -1.01,1.01 -2.202,1.734 -3.575,2.166 -1.374,0.435 -2.856,0.652 -4.447,0.652 -1.879,0 -3.827,-0.255 -5.854,-0.758 -2.022,-0.506 -4.045,-1.267 -6.07,-2.278 -2.169,-1.012 -4.335,-2.349 -6.503,-4.011 -2.169,-1.662 -4.481,-3.722 -6.939,-6.18 -2.312,-2.311 -4.554,-4.949 -6.72,-7.913 -2.168,-2.964 -4.265,-6.18 -6.289,-9.647 -1.879,-3.616 -3.721,-7.482 -5.527,-11.602 -1.808,-4.119 -3.507,-8.634 -5.095,-13.549 -0.867,-2.169 -1.734,-4.915 -2.604,-8.239 -0.867,-3.326 -1.733,-7.228 -2.6,-11.709 l -3.685,-16.478 h -17.562 l 19.73,87.16 h -19.73 l 2.166,8.672 c 3.325,0.288 6.326,0.723 8.999,1.301 2.675,0.578 4.951,1.156 6.829,1.734 2.025,0.578 4.228,1.301 6.614,2.168 2.383,0.867 5.022,1.952 7.913,3.254 z m 201.415,-2.383 -21.463,-98 c -1.445,-6.36 -3.145,-12.106 -5.096,-17.235 -1.951,-5.133 -4.3,-9.505 -7.046,-13.118 -2.745,-3.76 -5.854,-7.084 -9.321,-9.974 -3.471,-2.892 -7.374,-5.347 -11.708,-7.372 -4.191,-2.024 -8.674,-3.577 -13.443,-4.661 -4.77,-1.084 -9.829,-1.625 -15.176,-1.625 -5.781,0 -10.912,0.578 -15.395,1.734 -4.48,1.155 -8.383,2.889 -11.707,5.202 -3.325,2.314 -5.853,4.626 -7.587,6.94 -1.737,2.312 -2.604,4.695 -2.604,7.153 0,1.301 0.218,2.494 0.652,3.578 0.433,1.085 1.085,2.061 1.952,2.928 0.867,1.01 1.805,1.733 2.818,2.168 1.012,0.432 2.023,0.65 3.035,0.65 0.724,0 1.445,-0.072 2.169,-0.218 0.721,-0.143 1.373,-0.36 1.951,-0.65 0.721,-0.289 1.408,-0.686 2.06,-1.192 0.65,-0.506 1.336,-1.048 2.058,-1.625 0.434,-0.435 1.084,-1.194 1.953,-2.278 0.867,-1.084 1.949,-2.42 3.25,-4.011 1.156,-1.591 2.132,-2.89 2.927,-3.902 0.796,-1.013 1.482,-1.737 2.06,-2.169 1.012,-0.724 2.023,-1.337 3.036,-1.843 1.012,-0.506 2.097,-0.903 3.252,-1.193 1.157,-0.432 2.384,-0.757 3.686,-0.975 1.301,-0.218 2.674,-0.326 4.12,-0.326 3.035,0 5.999,0.434 8.889,1.301 2.889,0.867 5.708,2.098 8.454,3.685 2.747,1.591 5.313,3.579 7.699,5.963 2.384,2.386 4.515,5.241 6.394,8.565 2.023,3.179 3.831,7.047 5.421,11.599 1.589,4.554 3.036,9.722 4.336,15.503 l 4.769,21.681 c -1.588,-2.891 -3.179,-5.421 -4.769,-7.59 -1.589,-2.166 -3.179,-4.045 -4.77,-5.636 -2.89,-2.89 -5.854,-5.455 -8.89,-7.696 -3.034,-2.24 -6.214,-4.157 -9.538,-5.745 -3.181,-1.302 -6.36,-2.315 -9.541,-3.035 -3.178,-0.724 -6.214,-1.085 -9.104,-1.085 -4.626,0 -8.783,0.722 -12.468,2.169 -3.685,1.445 -6.901,3.685 -9.647,6.72 -3.182,3.614 -5.566,7.733 -7.156,12.358 -1.591,4.625 -2.384,9.757 -2.384,15.394 0,6.071 0.759,12.033 2.275,17.887 1.519,5.854 3.723,11.599 6.614,17.238 2.891,5.636 6.286,10.622 10.189,14.96 3.903,4.334 8.168,8.022 12.792,11.058 4.77,3.035 9.65,5.275 14.636,6.72 4.984,1.445 10.008,2.169 15.066,2.169 2.169,0 4.338,-0.109 6.507,-0.327 2.168,-0.217 4.334,-0.687 6.502,-1.41 2.024,-0.578 4.012,-1.264 5.963,-2.059 1.951,-0.793 3.793,-1.698 5.53,-2.71 0.721,-0.433 1.373,-0.904 1.951,-1.409 0.578,-0.505 1.228,-1.048 1.952,-1.627 0.577,-0.578 1.19,-1.227 1.842,-1.951 0.65,-0.721 1.265,-1.445 1.842,-2.169 l 5.205,11.493 z M 798.51,-65.045 c -2.023,1.737 -4.083,3.325 -6.179,4.772 -2.095,1.445 -4.227,2.601 -6.395,3.468 -2.023,1.013 -4.121,1.734 -6.289,2.168 -2.166,0.435 -4.334,0.65 -6.503,0.65 -3.471,0 -6.938,-0.613 -10.408,-1.843 -3.468,-1.227 -6.938,-3.07 -10.406,-5.527 -3.47,-2.458 -6.686,-5.639 -9.647,-9.541 -2.964,-3.903 -5.674,-8.455 -8.131,-13.658 -2.314,-5.059 -4.12,-10.263 -5.421,-15.61 -1.299,-5.35 -1.952,-10.769 -1.952,-16.263 0,-3.467 0.435,-6.577 1.302,-9.323 0.867,-2.747 2.097,-5.13 3.685,-7.154 1.591,-2.024 3.399,-3.542 5.421,-4.554 2.023,-1.01 4.192,-1.516 6.504,-1.516 2.891,0 5.818,0.506 8.78,1.516 2.964,1.012 5.819,2.53 8.566,4.554 4.335,3.036 8.345,6.685 12.033,10.95 3.685,4.263 7.044,9.069 10.079,14.417 3.036,5.347 5.82,11.526 8.348,18.539 2.53,7.01 4.734,14.923 6.613,23.741 z"
       style="fill:#ffffff;fill-opacity:1;fill-rule:evenodd;stroke:none;stroke-width:3.24787"
       transform="matrix(0.09400965,0,0,-0.09400965,152.01092,19.442136)"
       clip-path="url(#clipPath9)" />
    <path
       id="path10"
       d="m 0,0 18.647,-6.286 c 1.011,-0.577 2.384,-1.264 4.118,-2.059 1.736,-0.796 3.83,-1.772 6.289,-2.927 2.456,-1.159 4.551,-2.24 6.288,-3.253 1.734,-1.013 3.107,-2.023 4.117,-3.036 1.302,-1.012 2.495,-2.24 3.579,-3.685 1.084,-1.445 1.988,-2.964 2.709,-4.555 0.724,-1.587 1.264,-3.215 1.625,-4.877 0.363,-1.663 0.544,-3.359 0.544,-5.096 0,-0.867 -0.038,-1.696 -0.109,-2.492 -0.072,-0.795 -0.252,-1.625 -0.541,-2.494 -0.288,-1.735 -0.832,-3.433 -1.628,-5.096 -0.794,-1.663 -1.768,-3.288 -2.927,-4.878 -1.733,-2.312 -3.901,-4.443 -6.502,-6.394 -2.604,-1.952 -5.565,-3.651 -8.889,-5.096 -3.326,-1.302 -7.047,-2.277 -11.167,-2.927 -4.12,-0.652 -8.709,-0.975 -13.767,-0.975 -5.348,0 -10.443,0.36 -15.287,1.084 -4.84,0.721 -9.358,1.806 -13.549,3.25 -4.192,1.591 -7.842,3.29 -10.949,5.096 -3.107,1.808 -5.674,3.868 -7.696,6.179 -1.88,2.169 -3.325,4.264 -4.338,6.289 -1.01,2.023 -1.516,3.902 -1.516,5.636 0,1.155 0.217,2.277 0.649,3.362 0.435,1.084 1.085,1.988 1.952,2.709 0.723,0.724 1.628,1.302 2.712,1.734 1.082,0.435 2.275,0.652 3.576,0.652 0.721,0 1.482,-0.074 2.277,-0.217 0.793,-0.146 1.48,-0.361 2.057,-0.652 0.724,-0.144 1.411,-0.47 2.061,-0.974 0.652,-0.506 1.264,-1.121 1.845,-1.845 0.432,-0.578 1.009,-1.445 1.734,-2.6 0.723,-1.156 1.588,-2.604 2.6,-4.337 0.867,-1.445 1.628,-2.638 2.277,-3.577 0.65,-0.939 1.119,-1.554 1.411,-1.842 0.722,-1.013 1.66,-1.989 2.818,-2.927 1.156,-0.941 2.384,-1.845 3.685,-2.713 1.445,-0.866 2.927,-1.625 4.443,-2.274 1.519,-0.652 3.145,-1.193 4.881,-1.628 1.733,-0.432 3.576,-0.758 5.527,-0.975 1.952,-0.218 4.083,-0.324 6.395,-0.324 3.325,0 6.36,0.215 9.107,0.65 2.746,0.434 5.275,1.012 7.589,1.734 2.166,0.867 4.083,1.843 5.746,2.927 1.661,1.083 2.998,2.348 4.011,3.796 1.156,1.299 1.985,2.637 2.492,4.01 0.506,1.371 0.76,2.782 0.76,4.226 0,2.024 -0.471,3.94 -1.41,5.746 -0.938,1.808 -2.42,3.507 -4.445,5.096 -2.023,1.59 -4.481,3.034 -7.371,4.336 -2.892,1.302 -6.217,2.53 -9.973,3.686 -0.289,0 -0.615,0.074 -0.976,0.217 -0.36,0.145 -0.687,0.289 -0.976,0.434 l -14.743,5.419 c -4.48,1.445 -8.348,3.145 -11.6,5.096 -3.25,1.951 -5.889,4.083 -7.913,6.397 -2.024,2.312 -3.54,4.732 -4.553,7.261 -1.013,2.532 -1.516,5.168 -1.516,7.916 0,2.455 0.397,4.841 1.19,7.153 0.796,2.314 1.988,4.626 3.579,6.938 1.59,2.169 3.576,4.157 5.963,5.962 2.383,1.808 5.167,3.362 8.345,4.664 3.324,1.299 6.938,2.274 10.84,2.927 3.903,0.648 8.168,0.975 12.792,0.975 7.083,0 13.552,-0.686 19.406,-2.06 5.854,-1.373 11.092,-3.505 15.718,-6.397 3.325,-2.169 5.854,-4.48 7.588,-6.938 1.736,-2.457 2.603,-5.058 2.603,-7.805 0,-1.156 -0.218,-2.24 -0.652,-3.252 C 53.12,13.083 52.542,12.142 51.818,11.275 50.952,10.408 50.013,9.759 49,9.324 47.987,8.889 46.903,8.674 45.747,8.674 c -1.156,0 -2.277,0.215 -3.359,0.65 -1.084,0.435 -2.134,1.084 -3.144,1.951 -0.723,0.435 -1.628,1.302 -2.712,2.601 -1.082,1.302 -2.275,2.892 -3.577,4.772 -1.445,2.022 -2.998,3.794 -4.66,5.31 -1.662,1.519 -3.505,2.784 -5.53,3.794 -2.023,1.012 -4.3,1.771 -6.829,2.278 -2.53,0.505 -5.239,0.76 -8.129,0.76 -4.048,0 -7.627,-0.398 -10.734,-1.193 -3.107,-0.795 -5.745,-1.988 -7.913,-3.579 -2.313,-1.445 -4.012,-3.036 -5.096,-4.769 -1.082,-1.734 -1.626,-3.614 -1.626,-5.636 0,-1.592 0.327,-3.108 0.976,-4.555 0.65,-1.445 1.554,-2.746 2.71,-3.903 1.158,-1.299 2.892,-2.566 5.204,-3.793 C -6.36,2.134 -3.468,0.941 0,-0.215 Z m 118.597,74.151 -7.805,-35.773 h 27.966 L 136.375,27.537 H 108.406 L 94.313,-34.69 c -0.579,-2.457 -0.976,-4.588 -1.193,-6.394 -0.215,-1.808 -0.324,-3.29 -0.324,-4.446 0,-1.445 0.218,-2.783 0.65,-4.011 0.435,-1.228 1.012,-2.278 1.734,-3.144 0.867,-0.721 1.844,-1.3 2.927,-1.734 1.084,-0.433 2.276,-0.649 3.578,-0.649 0.867,0 1.772,0.071 2.71,0.216 0.938,0.144 1.914,0.361 2.927,0.65 0.723,0.289 1.373,0.578 1.951,0.868 0.578,0.288 1.23,0.577 1.951,0.866 0.578,0.435 1.193,0.867 1.843,1.302 0.652,0.432 1.265,0.939 1.842,1.516 0.724,0.435 1.917,1.482 3.579,3.145 1.662,1.661 3.794,3.868 6.395,6.614 l 6.938,-5.856 c -3.325,-4.192 -6.504,-7.625 -9.539,-10.297 -3.036,-2.675 -5.854,-4.735 -8.458,-6.18 -2.743,-1.302 -5.455,-2.277 -8.127,-2.927 -2.675,-0.652 -5.385,-0.975 -8.131,-0.975 -3.179,0 -6.108,0.397 -8.781,1.192 -2.675,0.793 -5.024,2.132 -7.046,4.012 -2.026,1.877 -3.542,3.937 -4.555,6.177 -1.01,2.24 -1.516,4.663 -1.516,7.264 0,1.59 0.108,3.324 0.323,5.203 0.218,1.881 0.543,3.758 0.978,5.637 L 91.277,27.537 H 71.983 l 1.951,8.022 c 3.178,0.721 6.034,1.626 8.563,2.71 2.529,1.084 4.735,2.277 6.612,3.576 2.025,1.448 3.976,3.107 5.856,4.987 1.877,1.879 3.685,4.12 5.418,6.723 1.302,1.734 2.495,3.613 3.58,5.636 1.081,2.023 2.203,4.263 3.359,6.72 0.578,1.157 1.155,2.421 1.734,3.794 0.578,1.374 1.158,2.784 1.736,4.229 z m 115.559,-110.14 5.854,-6.506 c -4.481,-4.191 -9.033,-7.77 -13.659,-10.732 -4.626,-2.963 -9.324,-5.455 -14.093,-7.481 -4.77,-1.876 -9.504,-3.25 -14.202,-4.119 -4.695,-0.867 -9.358,-1.299 -13.983,-1.299 -6.216,0 -11.781,0.866 -16.696,2.6 -4.913,1.734 -9.25,4.481 -13.006,8.24 -3.759,3.757 -6.614,8.202 -8.566,13.333 -1.951,5.132 -2.927,10.805 -2.927,17.019 0,5.494 0.796,10.949 2.386,16.371 1.591,5.419 3.975,10.588 7.156,15.501 3.033,5.061 6.754,9.65 11.163,13.77 4.409,4.117 9.359,7.696 14.852,10.731 5.638,3.036 11.455,5.311 17.454,6.83 5.998,1.517 12.177,2.277 18.537,2.277 5.059,0 9.576,-0.543 13.55,-1.628 3.974,-1.084 7.407,-2.852 10.3,-5.31 2.889,-2.314 5.021,-4.844 6.394,-7.59 1.373,-2.747 2.06,-5.708 2.06,-8.89 0,-1.879 -0.289,-3.793 -0.867,-5.744 -0.578,-1.951 -1.517,-3.939 -2.818,-5.963 -1.301,-2.022 -2.999,-4.01 -5.095,-5.962 -2.095,-1.951 -4.589,-3.794 -7.48,-5.528 -3.035,-1.879 -6.685,-3.542 -10.949,-4.989 -4.265,-1.445 -9.215,-2.744 -14.851,-3.901 -5.639,-1.157 -11.889,-2.133 -18.754,-2.927 -6.866,-0.793 -14.419,-1.409 -22.656,-1.843 -0.145,-1.445 -0.254,-2.673 -0.326,-3.685 -0.071,-1.013 -0.109,-1.881 -0.109,-2.601 0,-2.746 0.29,-5.35 0.867,-7.808 0.578,-2.457 1.445,-4.84 2.601,-7.153 1.158,-2.168 2.566,-4.119 4.229,-5.856 1.661,-1.734 3.578,-3.25 5.744,-4.552 2.169,-1.301 4.409,-2.24 6.724,-2.818 2.311,-0.578 4.623,-0.866 6.938,-0.866 3.035,0 6.285,0.397 9.755,1.19 3.468,0.795 7.228,1.988 11.273,3.579 4.048,1.59 8.023,3.576 11.924,5.962 3.903,2.384 7.662,5.095 11.276,8.131 z m -69.597,24.931 c 8.094,0.724 15.032,1.52 20.814,2.387 5.782,0.867 10.48,1.734 14.093,2.602 5.782,1.299 10.623,2.819 14.526,4.553 3.902,1.734 6.937,3.541 9.106,5.422 2.169,2.022 3.759,4.081 4.77,6.176 1.012,2.097 1.518,4.3 1.518,6.614 0,2.024 -0.363,3.866 -1.084,5.528 -0.724,1.662 -1.88,3.145 -3.47,4.447 -1.588,1.298 -3.505,2.311 -5.745,3.034 -2.241,0.722 -4.806,1.085 -7.696,1.085 -3.036,0 -6.18,-0.472 -9.43,-1.411 -3.253,-0.938 -6.543,-2.276 -9.867,-4.01 -3.325,-1.88 -6.432,-4.048 -9.322,-6.506 -2.89,-2.455 -5.565,-5.201 -8.022,-8.237 -2.313,-3.181 -4.3,-6.578 -5.962,-10.191 -1.663,-3.613 -3.073,-7.516 -4.229,-11.707 z m 181.903,-23.846 6.505,-6.289 c -9.251,-8.528 -18.321,-14.817 -27.21,-18.862 -8.889,-4.048 -17.596,-6.071 -26.124,-6.071 -4.049,0 -7.808,0.397 -11.275,1.192 -3.468,0.793 -6.721,1.915 -9.757,3.359 -3.035,1.591 -5.744,3.614 -8.131,6.072 -2.383,2.457 -4.371,5.276 -5.961,8.457 -1.734,3.178 -3.036,6.54 -3.903,10.079 -0.867,3.542 -1.302,7.264 -1.302,11.166 0,5.639 0.761,11.204 2.277,16.697 1.52,5.491 3.794,10.912 6.83,16.259 3.035,5.35 6.54,10.083 10.516,14.202 3.974,4.12 8.418,7.625 13.333,10.517 4.916,2.89 9.974,5.059 15.177,6.504 5.205,1.444 10.552,2.168 16.045,2.168 4.912,0 9.359,-0.652 13.332,-1.952 3.975,-1.301 7.553,-3.252 10.732,-5.856 3.181,-2.744 5.53,-5.599 7.047,-8.562 1.519,-2.962 2.277,-6.18 2.277,-9.648 0,-2.168 -0.217,-4.083 -0.652,-5.745 -0.432,-1.662 -1.156,-3.072 -2.166,-4.229 -1.012,-1.155 -2.169,-2.025 -3.47,-2.603 -1.302,-0.578 -2.747,-0.867 -4.335,-0.867 -1.158,0 -2.24,0.218 -3.253,0.653 -1.012,0.432 -1.951,1.084 -2.818,1.951 -0.867,1.01 -1.52,2.059 -1.952,3.144 -0.434,1.084 -0.651,2.274 -0.651,3.576 l 0.217,3.468 v 3.687 c 0,1.446 -0.36,2.927 -1.084,4.444 -0.722,1.519 -1.734,2.927 -3.036,4.229 -1.445,1.155 -3.07,2.059 -4.878,2.709 -1.805,0.652 -3.793,0.975 -5.962,0.975 -1.589,0 -3.216,-0.142 -4.878,-0.432 -1.662,-0.289 -3.287,-0.724 -4.879,-1.301 -1.733,-0.578 -3.432,-1.336 -5.095,-2.277 -1.661,-0.94 -3.287,-1.987 -4.877,-3.142 -3.325,-2.314 -6.395,-5.276 -9.213,-8.892 -2.821,-3.614 -5.459,-7.73 -7.914,-12.357 -2.315,-4.769 -4.048,-9.539 -5.204,-14.311 -1.159,-4.769 -1.736,-9.61 -1.736,-14.525 0,-2.603 0.291,-5.095 0.869,-7.481 0.578,-2.384 1.371,-4.661 2.383,-6.829 1.157,-2.169 2.495,-4.083 4.012,-5.745 1.519,-1.662 3.215,-3.073 5.095,-4.229 2.023,-1.156 4.049,-2.023 6.071,-2.601 2.023,-0.578 4.119,-0.866 6.286,-0.866 1.736,0 3.616,0.18 5.639,0.541 2.022,0.36 4.191,0.832 6.503,1.41 2.315,0.721 4.555,1.516 6.721,2.383 2.168,0.867 4.336,1.88 6.505,3.035 2.169,1.302 4.698,3.001 7.588,5.096 2.892,2.097 6.143,4.589 9.756,7.481 z M 417.792,91.495 399.365,8.457 c 2.458,3.613 4.986,7.01 7.587,10.191 2.603,3.179 5.204,5.925 7.805,8.237 2.746,2.458 5.458,4.554 8.131,6.288 2.674,1.734 5.384,3.107 8.131,4.12 2.746,1.156 5.456,1.988 8.131,2.493 2.672,0.506 5.31,0.76 7.913,0.76 3.324,0 6.395,-0.506 9.213,-1.519 2.818,-1.01 5.385,-2.529 7.699,-4.552 2.312,-1.88 4.045,-4.011 5.201,-6.397 1.159,-2.384 1.736,-4.807 1.736,-7.264 0,-1.588 -0.145,-3.322 -0.434,-5.201 -0.289,-1.88 -0.65,-3.903 -1.084,-6.072 l -11.273,-48.133 c -0.434,-2.023 -0.724,-3.757 -0.87,-5.204 -0.143,-1.445 -0.215,-2.744 -0.215,-3.903 0,-1.155 0.144,-2.203 0.433,-3.144 0.289,-0.938 0.724,-1.769 1.302,-2.491 0.721,-0.725 1.482,-1.266 2.277,-1.628 0.793,-0.361 1.625,-0.541 2.492,-0.541 1.155,0 2.386,0.217 3.685,0.651 1.302,0.433 2.603,1.083 3.902,1.95 2.026,1.301 3.977,2.929 5.854,4.88 1.879,1.951 3.687,4.083 5.421,6.395 l 6.721,-5.637 c -4.626,-6.217 -9.539,-10.805 -14.743,-13.767 -5.204,-2.964 -10.623,-4.445 -16.259,-4.445 -2.603,0 -4.987,0.397 -7.155,1.192 -2.169,0.796 -4.121,1.915 -5.854,3.362 -1.736,1.588 -3.073,3.359 -4.011,5.31 -0.941,1.952 -1.411,4.011 -1.411,6.179 0,1.446 0.109,3.036 0.327,4.77 0.214,1.734 0.614,3.687 1.193,5.853 l 11.272,50.303 c 0.289,1.445 0.506,2.818 0.652,4.12 0.144,1.298 0.215,2.457 0.215,3.467 0,1.445 -0.252,2.747 -0.758,3.902 -0.506,1.159 -1.337,2.169 -2.492,3.036 -1.014,1.012 -2.169,1.734 -3.47,2.169 -1.302,0.434 -2.747,0.65 -4.338,0.65 -1.155,0 -2.312,-0.107 -3.468,-0.325 -1.155,-0.217 -2.312,-0.468 -3.467,-0.76 -1.302,-0.289 -2.532,-0.684 -3.688,-1.19 -1.156,-0.507 -2.312,-1.122 -3.467,-1.843 -3.471,-2.169 -6.83,-4.772 -10.082,-7.808 -3.254,-3.035 -6.323,-6.574 -9.215,-10.622 -3.036,-4.049 -5.708,-8.275 -8.023,-12.684 -2.312,-4.408 -4.334,-8.925 -6.071,-13.552 -1.734,-4.769 -3.216,-9.321 -4.443,-13.658 -1.228,-4.338 -2.278,-8.383 -3.144,-12.142 l -4.12,-17.996 h -17.127 l 30.785,137.46 h -19.727 l 2.166,8.889 c 5.35,0.435 10.552,1.41 15.61,2.929 5.061,1.516 10.047,3.431 14.961,5.745 z M 541.808,40.761 534.221,7.59 c 0.867,1.299 1.734,2.601 2.601,3.903 0.867,1.301 1.734,2.528 2.603,3.685 0.721,1.156 1.516,2.24 2.383,3.252 0.868,1.013 1.734,1.952 2.601,2.819 3.038,3.324 6.145,6.179 9.324,8.565 3.182,2.384 6.36,4.372 9.539,5.96 3.181,1.591 6.325,2.784 9.432,3.579 3.107,0.795 6.18,1.193 9.215,1.193 2.312,0 4.481,-0.218 6.503,-0.652 2.024,-0.433 3.975,-1.084 5.854,-1.951 1.736,-0.867 3.325,-1.951 4.77,-3.25 1.447,-1.302 2.675,-2.748 3.687,-4.338 0.578,-0.867 1.048,-1.734 1.408,-2.603 0.361,-0.867 0.687,-1.663 0.975,-2.383 0.147,-0.867 0.289,-1.734 0.435,-2.601 0.144,-0.87 0.218,-1.737 0.218,-2.604 0,-1.444 -0.183,-3.324 -0.544,-5.636 -0.36,-2.315 -0.903,-4.987 -1.625,-8.022 l -9.973,-44.881 c -0.579,-2.311 -0.976,-4.262 -1.193,-5.853 -0.218,-1.591 -0.327,-2.818 -0.327,-3.685 0,-1.013 0.181,-1.954 0.544,-2.821 0.361,-0.867 0.829,-1.662 1.408,-2.383 0.723,-0.578 1.447,-1.05 2.169,-1.41 0.723,-0.361 1.59,-0.541 2.603,-0.541 2.455,0 5.275,1.155 8.454,3.467 3.178,2.315 6.72,5.854 10.623,10.625 l 6.721,-6.07 c -3.179,-3.76 -6.106,-6.867 -8.78,-9.324 -2.673,-2.458 -5.168,-4.338 -7.479,-5.637 -2.313,-1.158 -4.698,-2.025 -7.155,-2.602 -2.458,-0.579 -4.916,-0.867 -7.371,-0.867 -1.879,0 -3.65,0.18 -5.313,0.542 -1.662,0.361 -3.144,0.758 -4.446,1.191 -1.445,0.724 -2.709,1.628 -3.794,2.712 -1.084,1.084 -2.06,2.349 -2.926,3.794 -0.721,1.445 -1.3,2.89 -1.734,4.335 -0.434,1.447 -0.649,2.963 -0.649,4.554 0,1.302 0.106,2.855 0.323,4.66 0.217,1.809 0.615,3.797 1.193,5.963 l 10.408,47.049 c 0.433,1.88 0.759,3.614 0.976,5.204 0.215,1.591 0.324,2.89 0.324,3.902 0,1.591 -0.252,2.998 -0.759,4.229 -0.507,1.227 -1.265,2.275 -2.277,3.144 -1.01,1.01 -2.204,1.734 -3.577,2.166 -1.373,0.435 -2.855,0.652 -4.445,0.652 -1.877,0 -3.829,-0.254 -5.854,-0.758 -2.023,-0.506 -4.045,-1.267 -6.069,-2.277 -2.169,-1.013 -4.337,-2.349 -6.505,-4.011 -2.169,-1.662 -4.48,-3.722 -6.939,-6.18 -2.311,-2.312 -4.551,-4.95 -6.72,-7.914 -2.169,-2.963 -4.263,-6.179 -6.288,-9.647 -1.877,-3.616 -3.723,-7.481 -5.528,-11.601 -1.808,-4.119 -3.504,-8.635 -5.096,-13.55 -0.866,-2.169 -1.733,-4.915 -2.6,-8.239 -0.867,-3.325 -1.736,-7.227 -2.603,-11.708 L 519.26,-63.743 H 501.7 l 19.729,87.16 H 501.7 l 2.166,8.672 c 3.327,0.289 6.325,0.724 8.998,1.302 2.675,0.578 4.952,1.155 6.831,1.734 2.023,0.578 4.226,1.301 6.613,2.168 2.383,0.867 5.023,1.951 7.913,3.253 z m 132.905,50.734 c 1.591,-0.144 2.998,-0.469 4.229,-0.976 1.227,-0.503 2.349,-1.264 3.359,-2.275 1.012,-1.012 1.771,-2.169 2.278,-3.469 0.505,-1.3 0.757,-2.748 0.757,-4.335 0,-1.88 -0.323,-3.614 -0.975,-5.204 -0.65,-1.591 -1.626,-3.036 -2.927,-4.337 -1.302,-1.299 -2.673,-2.275 -4.12,-2.927 -1.444,-0.65 -3.036,-0.976 -4.769,-0.976 -1.445,0 -2.856,0.254 -4.229,0.758 -1.373,0.506 -2.638,1.265 -3.794,2.278 -1.01,1.155 -1.805,2.385 -2.383,3.685 -0.577,1.302 -0.867,2.675 -0.867,4.119 0,1.88 0.323,3.58 0.976,5.096 0.649,1.518 1.697,2.926 3.141,4.228 1.302,1.445 2.746,2.492 4.338,3.144 1.59,0.65 3.252,0.976 4.986,0.976 z m 1.085,-50.734 -20.597,-81.087 c -0.434,-1.879 -0.724,-3.47 -0.869,-4.769 -0.144,-1.302 -0.215,-2.386 -0.215,-3.253 0,-1.156 0.143,-2.169 0.432,-3.036 0.289,-0.867 0.724,-1.662 1.302,-2.385 0.578,-0.578 1.264,-1.048 2.06,-1.408 0.795,-0.364 1.696,-0.544 2.709,-0.544 0.578,0 1.156,0.037 1.734,0.109 0.581,0.071 1.158,0.18 1.736,0.326 0.432,0.289 0.939,0.541 1.517,0.759 0.578,0.217 1.155,0.542 1.734,0.975 1.59,1.012 3.433,2.494 5.529,4.446 2.095,1.951 4.444,4.3 7.048,7.046 l 6.72,-5.639 c -2.169,-2.889 -4.48,-5.455 -6.938,-7.696 -2.457,-2.24 -5.132,-4.156 -8.023,-5.745 -2.746,-1.444 -5.455,-2.528 -8.13,-3.253 -2.672,-0.723 -5.239,-1.083 -7.696,-1.083 -2.747,0 -5.239,0.397 -7.479,1.192 -2.243,0.796 -4.299,1.915 -6.18,3.362 -1.734,1.734 -3.072,3.576 -4.011,5.527 -0.941,1.951 -1.41,4.011 -1.41,6.18 0,1.59 0.183,3.396 0.543,5.419 0.361,2.025 0.83,4.192 1.408,6.506 L 653.9,23.635 h -19.298 l 1.736,8.671 c 2.746,0.146 5.348,0.398 7.806,0.758 2.457,0.363 4.841,0.833 7.155,1.411 2.166,0.577 4.623,1.373 7.37,2.383 2.746,1.013 5.71,2.243 8.889,3.688 z m 71.113,50.734 -22.983,-102.767 c 3.614,6.07 7.301,11.598 11.058,16.584 3.759,4.988 7.587,9.433 11.49,13.336 4.049,3.902 7.988,7.262 11.819,10.082 3.828,2.818 7.621,5.093 11.381,6.829 3.759,1.734 7.479,2.999 11.166,3.794 3.685,0.795 7.336,1.193 10.949,1.193 3.468,0 6.504,-0.289 9.105,-0.867 2.603,-0.578 4.771,-1.447 6.505,-2.603 1.734,-1.156 3.036,-2.492 3.902,-4.012 0.868,-1.516 1.302,-3.144 1.302,-4.877 0,-1.157 -0.217,-2.241 -0.652,-3.253 -0.432,-1.011 -1.156,-2.023 -2.169,-3.036 -0.867,-0.867 -1.805,-1.516 -2.818,-1.951 -1.009,-0.432 -2.094,-0.65 -3.25,-0.65 -0.724,0 -1.447,0.072 -2.169,0.218 -0.724,0.143 -1.373,0.288 -1.952,0.432 -0.577,0.289 -1.444,0.795 -2.602,1.519 -1.156,0.721 -2.529,1.662 -4.119,2.818 -2.167,1.445 -4.192,2.529 -6.069,3.253 -1.88,0.721 -3.614,1.084 -5.205,1.084 -1.879,0 -3.939,-0.363 -6.179,-1.084 -2.241,-0.724 -4.59,-1.734 -7.047,-3.035 -1.588,-0.867 -3.541,-2.133 -5.853,-3.794 -2.313,-1.663 -4.915,-3.722 -7.805,-6.18 l 21.031,-52.471 c 1.299,-3.61 2.564,-6.54 3.793,-8.78 1.228,-2.24 2.349,-3.936 3.362,-5.096 1.156,-1.009 2.312,-1.77 3.468,-2.274 1.156,-0.507 2.312,-0.759 3.471,-0.759 1.299,0 2.6,0.216 3.901,0.65 1.299,0.433 2.601,1.013 3.903,1.734 1.299,0.867 2.853,2.203 4.661,4.011 1.807,1.808 3.865,4.083 6.179,6.83 l 6.938,-5.637 c -2.892,-3.759 -5.639,-6.829 -8.239,-9.215 -2.601,-2.383 -5.13,-4.229 -7.589,-5.528 -2.313,-1.158 -4.696,-2.025 -7.154,-2.602 -2.458,-0.579 -4.915,-0.867 -7.373,-0.867 -1.877,0 -3.613,0.145 -5.202,0.434 -1.59,0.289 -3.181,0.721 -4.771,1.299 -1.445,0.578 -2.744,1.339 -3.903,2.277 -1.156,0.939 -2.24,2.06 -3.25,3.362 -1.591,2.023 -3.036,4.154 -4.338,6.395 -1.298,2.24 -2.383,4.589 -3.252,7.046 l -18.21,45.747 c -3.614,-4.623 -6.83,-9.215 -9.648,-13.767 -2.82,-4.552 -5.241,-9.141 -7.264,-13.767 -3.036,-6.506 -5.674,-12.9 -7.914,-19.189 -2.24,-6.286 -4.082,-12.322 -5.53,-18.104 h -16.693 l 30.787,137.46 h -19.729 l 2.167,8.889 c 5.205,0.435 10.372,1.41 15.502,2.929 5.132,1.516 10.153,3.431 15.069,5.745 z"
       style="fill:#ffffff;fill-opacity:1;fill-rule:evenodd;stroke:none;stroke-width:3.24787"
       transform="matrix(0.09400965,0,0,-0.09400965,234.59955,27.330255)"
       clip-path="url(#clipPath11)" />
  </g>
  <path
     id="path12"
     d="m 0,0 c -335.353,22.516 -375.061,-345.331 -235.976,-463.07 -58.816,157.714 -43.9,303.273 98.085,395.699 -184.406,-145.4 -138.802,-464.009 155.812,-502.641 -172.032,82.499 -229.297,204.929 -207.769,354.761 -0.578,-9.531 -0.44,-7.756 0.725,0.43 -18.022,-296.235 286.462,-408.793 460.997,-243.508 -164.698,-70.278 -299.406,-21.522 -390.538,99.278 180.57,-197.767 508.028,-99.225 490.158,162.884 C 302.99,-371.398 167.637,-434.729 35.018,-407.143 337.741,-417.069 428.05,-86.785 267.979,58.608 340.386,-93.239 299.374,-247.454 175.925,-333.403 391.429,-119.533 245.589,165.194 5.086,163.396 172.729,101.412 240.388,-26.739 220.749,-185.974 201.927,202.294 -161.976,170.477 -255.508,45.898 -75.354,113.269 52.49,85.001 150.303,-41.729 -57.855,165.569 -320.805,48.089 -348.882,-202.388 -272.032,-59.826 -177.867,42.048 0,0 m 35.907,227.647 c 54.224,-2.182 106.107,-13.971 153.04,-35.171 l -49.151,80.603 35.999,21.51 40.103,-67.73 42.633,85.642 32.983,-18.956 -45.344,-90.342 78.703,-0.721 -1.337,-39.094 -83.586,2.675 C 297.442,133.401 336.706,96.855 371.865,40.74 l 0.558,0.332 0.615,100.29 41.936,-0.635 -1.504,-78.251 80.882,50.139 0.163,-0.312 0.254,0.156 18.083,-33.467 -86.077,-52.998 66.559,-41.997 -18.786,-27.843 -76.883,43.979 c 18.784,-43.648 42.154,-132.312 45.716,-186.237 l 45.987,86.846 36.875,-19.954 -37.727,-69.088 95.392,7.098 0.551,-38.038 -100.821,-7.178 39.589,-68.02 -29.537,-8.618 -49.981,70.547 c -1.247,-61.537 -17.474,-104.881 -44.935,-159.968 l 84.925,44.133 18.991,-37.375 -70.313,-35.395 82.522,-48.379 -21.157,-31.619 -87.037,51.401 -6.09,-78.471 -33.396,3.646 2.872,83.847 c -31.933,-46.787 -72.894,-86.865 -120.357,-117.732 l 100.379,-1.59 -1.048,-41.902 -78.688,2.262 49.623,-81.781 -33.628,-17.763 -52.169,86.57 -42.642,-66.149 -27.648,19.07 45.741,78.197 c -50.442,-25.457 -106.608,-41.176 -166.016,-44.621 l -63.765,-116.27 -59.638,130.03 -110.125,-90.416 -29.602,147.035 -147.144,-28.917 28.915,147.144 -147.03,29.604 83.032,124.888 -124.492,83.603 124.492,83.609 -83.032,124.882 147.03,29.597 -28.915,147.181 147.144,-28.938 29.602,147.021 124.882,-83.023 83.618,124.486 z"
     style="fill:#ffffff;fill-opacity:1;fill-rule:evenodd;stroke:none;stroke-width:3.36989"
     transform="matrix(0.10468511,0,0,-0.10468511,55.086456,36.156981)"
     clip-path="url(#clipPath13)" />
</svg>
